<svg class="services-cards-icon" version="1.1" xmlns="http://www.w3.org/2000/svg" xmlns:xlink="http://www.w3.org/1999/xlink" x="0px" y="0px"
	 viewBox="0 0 110 113.1" style="enable-background:new 0 0 110 113.1;" xml:space="preserve">
<style type="text/css">
	.st1{fill:#FFFFFF;}
	.st20{opacity:0.5;}
	.st21{fill:#2E9FFF;}
	.st33{fill:#FFFFFF;stroke:#2E9FFF;stroke-width:2;stroke-miterlimit:10;}
	.st35{fill:#FFFFFF;stroke:#2E9FFF;stroke-width:2;stroke-linecap:round;stroke-miterlimit:10;}
</style>
		<g>
			<path class="st1" d="M40.7,59c-1.5,0-2.7-1.2-2.7-2.7V19.7c0-1.5,1.2-2.7,2.7-2.7h55.7c1.5,0,2.7,1.2,2.7,2.7v36.7
				c0,1.5-1.2,2.7-2.7,2.7H40.7z"/>
			<g>
				<path class="st21" d="M96.3,18c0.9,0,1.7,0.7,1.7,1.7v36.7c0,0.9-0.7,1.7-1.7,1.7H40.7c-0.9,0-1.7-0.7-1.7-1.7V19.7
					c0-0.9,0.7-1.7,1.7-1.7H96.3 M96.3,16H40.7c-2,0-3.7,1.6-3.7,3.7v36.7c0,2,1.6,3.7,3.7,3.7h55.7c2,0,3.7-1.6,3.7-3.7V19.7
					C100,17.6,98.4,16,96.3,16L96.3,16z"/>
			</g>
		</g>
		<polygon class="st33" points="74,66 74,59 63,59 63,66 56.3,68.5 56.3,72 82,72 82,68.5 		"/>
		<g class="st20">
			<rect x="38.1" y="25" class="st1" width="60.9" height="27"/>
			<g>
				<path class="st21" d="M98,26v25H39.1V26H98 M100,24H37.1v29H100V24L100,24z"/>
			</g>
		</g>
		<path class="st35" d="M45.4,123.7H28.5c-9.7,0-17.6-7.9-17.6-17.6V75c0-9.7,7.9-17.6,17.6-17.6h16.9C55.1,57.4,63,65.3,63,75v31.2
			C63,115.8,55.1,123.7,45.4,123.7z"/>
		<line class="st35" x1="20.1" y1="78" x2="20.1" y2="111.4"/>
		<line class="st35" x1="54" y1="78" x2="54" y2="111.4"/>
		<path class="st35" d="M47.1,44.4c0-0.6,0-1.2,0-1.7c0,0,0-0.1,0-0.1c0-5.8-4.7-10.5-10.5-10.5c-5.8,0-10.5,4.7-10.5,10.5
			c0,0,0,0.1,0,0.1c0,0.5,0,1.1,0,1.7c-0.1,1.7,0.1,3.6,0.6,5.9c2.2,10.1,5.2,12.1,9.9,12.1v0h0l0,0l0,0l0,0l0,0l0,0v0
			c4.7,0,7.7-2.1,9.9-12.1C47,48,47.2,46.1,47.1,44.4z"/>
		<rect x="8" y="88" class="st1" width="93" height="46"/>
</svg>
