<svg class="main-feature-icon" version="1.1" xmlns="http://www.w3.org/2000/svg" xmlns:xlink="http://www.w3.org/1999/xlink" x="0px" y="0px" viewBox="0 0 32 32" style="enable-background:new 0 0 32 32;" xml:space="preserve">
  <path d="M16,0C7.2,0,0,7.2,0,16s7.2,16,16,16s16-7.2,16-16S24.8,0,16,0z M16,30C8.3,30,2,23.7,2,16S8.3,2,16,2 s14,6.3,14,14S23.7,30,16,30z"/>
  <circle cx="16" cy="16" r="2"/>
  <path d="M16,10c-6.3,0-9.5,6-9.5,6s3,6,9.5,6c6.3,0,9.5-6,9.5-6S22.5,10,16,10z M16,20c-2.2,0-4-1.8-4-4 c0-2.2,1.8-4,4-4s4,1.8,4,4C20,18.2,18.2,20,16,20z"/>
</svg>