<svg version="1.1" xmlns="http://www.w3.org/2000/svg" xmlns:xlink="http://www.w3.org/1999/xlink" x="0px" y="0px" width="100px" height="85px" viewBox="0 0 100 85" style="enable-background:new 0 0 100 85;" xml:space="preserve">
<path d="M83.3,11H16.7c-2,0-3.7,1.6-3.7,3.7v44.7c0,2,1.6,3.7,3.7,3.7h27.3v5.3l-6.9,2.2V75h25.9v-4.5l-7-2.2V63h27.4 c2,0,3.7-1.6,3.7-3.7V14.7C87,12.6,85.4,11,83.3,11z M60.9,72v1H39.1v-1l6.9-2.2V63h8v6.8L60.9,72z M85,59.3c0,0.9-0.7,1.7-1.7,1.7 H55.9h-12H16.7c-0.9,0-1.7-0.7-1.7-1.7V53h70V59.3z M85,52H15V23h70V52z M85,22H15v-7.3c0-0.9,0.7-1.7,1.7-1.7h66.7 c0.9,0,1.7,0.7,1.7,1.7V22z"/>
<path d="M23,48c1.7,0,3-1.3,3-3c0-0.4-0.1-0.8-0.2-1.1c0,0,0,0,0,0l10.3-7.4L51,39.2c0-0.1,0-0.1,0-0.2 c0,1.7,1.3,3,3,3s3-1.3,3-3c0-0.4-0.1-0.8-0.2-1.2l15.7-7.2c0,0,0,0,0,0C73.1,31.5,74,32,75,32c1.7,0,3-1.3,3-3s-1.3-3-3-3 s-3,1.3-3,3c0,0.3,0,0.5,0.1,0.8L56.2,37c0,0,0,0,0,0c-0.5-0.6-1.3-1-2.2-1c-1.4,0-2.5,0.9-2.9,2.2l-15.3-2.7l-10.6,7.6 C24.7,42.4,23.9,42,23,42c-1.7,0-3,1.3-3,3S21.3,48,23,48z M75,27c1.1,0,2,0.9,2,2s-0.9,2-2,2s-2-0.9-2-2S73.9,27,75,27z M54,37 c1.1,0,2,0.9,2,2s-0.9,2-2,2s-2-0.9-2-2S52.9,37,54,37z M23,43c1.1,0,2,0.9,2,2s-0.9,2-2,2s-2-0.9-2-2S21.9,43,23,43z"/>
</svg>