<svg version="1.1" xmlns="http://www.w3.org/2000/svg" xmlns:xlink="http://www.w3.org/1999/xlink" x="0px" y="0px" width="100px" height="85px" viewBox="0 0 100 85" style="enable-background:new 0 0 100 85;" xml:space="preserve">
<path d="M78.9,18.8v-1.3c0-3.3-2.7-6-6-6h-2.4c-5.6-3.6-12.1-5.7-19.1-6c-1-0.6-2.1-1-3.4-1H26c-3.3,0-6,2.7-6,6v9.7 c-5,6.4-8,14.5-8,23.3c0,21,17,38,38,38s38-17,38-38C88,34.1,84.6,25.5,78.9,18.8z M66.5,11.5H55c-0.4,0-0.7,0-1,0.1v-1.1 c0-1-0.3-2-0.7-2.9C58,8.1,62.4,9.4,66.5,11.5z M54,21.5v-7.9c0.3-0.1,0.7-0.1,1-0.1h17.8c2.2,0,4,1.8,4,4v9c0,2.2-1.8,4-4,4h-1.4 l-1.9,3.3l-1.9-3.3H55c-2.2,0-3.9-1.7-4-3.9C52.8,25.6,54,23.7,54,21.5z M22,10.5c0-2.2,1.8-4,4-4H48c2.2,0,4,1.8,4,4v11 c0,2.2-1.8,4-4,4H35.8l-1.9,3.3L32,25.5h-6c-2.2,0-4-1.8-4-4V10.5z M22,66.1c0.2-5.2,3.7-9.6,8.5-11.1c1.1,1.6,2.5,2.2,4.5,2.2 c2,0,3.4-0.7,4.5-2.2c4.9,1.5,8.5,6.1,8.5,11.5v10.5c0,0.8-0.1,1.6-0.2,2.3c-0.9-0.1-1.9-0.2-2.8-0.3V65.3c0-0.6-0.4-1-1-1 s-1,0.4-1,1v13.5c-6-1.2-11.5-3.9-16-7.6v-6.3c0-0.6-0.4-1-1-1s-1,0.4-1,1v4.5C23.9,68.3,22.9,67.3,22,66.1z M30.2,45.3 c0-2.6,2.1-4.8,4.8-4.8s4.8,2.1,4.8,4.8l0,0.1l0,0.1c0,0.3,0,0.5,0,0.8l0,0l0,0c0,0.9,0,1.9-0.3,3c-1.2,5.5-2.7,5.9-4.5,5.9 c-1.8,0-3.3-0.4-4.5-5.9c-0.2-1.1-0.3-2.1-0.3-3.1c0-0.3,0-0.6,0-0.8L30.2,45.3z M49.8,79.5c0.1-0.8,0.2-1.6,0.2-2.4V66.6 c0-6.2-4-11.4-9.6-13.3c0.4-1,0.7-2.1,1-3.5c0.3-1.2,0.4-2.4,0.3-3.5c0-0.3,0-0.7,0-1c0-3.7-3-6.8-6.8-6.8s-6.8,3-6.8,6.8 c0,0.3,0,0.7,0,0.9c-0.1,1.1,0.1,2.3,0.3,3.5c0.3,1.4,0.6,2.5,1,3.5c-4.7,1.6-8.3,5.6-9.3,10.6C16.3,58,14,51,14,43.5 c0-7.5,2.3-14.5,6.3-20.3c0.7,2.5,3.1,4.3,5.8,4.3h4.8l3.1,5.3l3.1-5.3h11c0.4,0,0.7,0,1.1-0.1c0.4,2.9,2.9,5.1,6,5.1h11.4l3.1,5.3 l3.1-5.3h0.3c3.3,0,6-2.7,6-6V22c4.5,6,7.1,13.4,7.1,21.5c0,6.7-1.8,13-5.1,18.4c-1.8-2.5-4.4-4.4-7.4-5.4c0.4-1,0.8-2.2,1.1-3.6 c0.3-1.2,0.4-2.4,0.3-3.5c0-0.3,0-0.7,0-1c0-3.7-3-6.8-6.8-6.8s-6.8,3-6.8,6.8l0,0.1c0,0.3,0,0.6,0,0.9c-0.1,1.1,0.1,2.3,0.3,3.5 c0.3,1.5,0.7,2.7,1.1,3.8c-5.8,2.3-9.9,7.9-9.9,14.5v7.7c0,0.2,0,0.4,0,0.6c-1,0.1-2,0.1-3,0.1C49.9,79.5,49.9,79.5,49.8,79.5z M73,48.5c0,0.3,0,0.5,0,0.8l0,0l0,0c0,0.9,0,1.9-0.3,3c-1.2,5.5-2.7,5.9-4.5,5.9c-1.8,0-3.3-0.4-4.5-5.9c-0.2-1.1-0.3-2.1-0.3-3.1 c0-0.3,0-0.6,0-0.8l0-0.1c0-2.6,2.1-4.8,4.8-4.8s4.8,2.1,4.8,4.8L73,48.5L73,48.5z M60,78.1v-8.5c0-0.6-0.4-1-1-1s-1,0.4-1,1v9 c-1,0.2-2,0.4-3,0.6c0-0.1,0-0.3,0-0.4v-7.7c0-5.8,3.7-10.8,8.9-12.7c1.1,1.4,2.4,2,4.3,2l0.1,0c1.9,0,3.3-0.7,4.3-2.1 c3,1,5.5,2.9,7.2,5.5C75.1,70.6,68.1,75.7,60,78.1z"/>
</svg>