<svg class="services-cards-icon" version="1.1" xmlns="http://www.w3.org/2000/svg" xmlns:xlink="http://www.w3.org/1999/xlink" x="0px" y="0px"
	 viewBox="0 0 110 113.1" style="enable-background:new 0 0 110 113.1;" xml:space="preserve">
<style type="text/css">
	.st1{fill:#FFFFFF;}
	.st35{fill:#FFFFFF;stroke:#2E9FFF;stroke-width:2;stroke-linecap:round;stroke-miterlimit:10;}
	.st36{opacity:0.5;fill:#FFFFFF;stroke:#2E9FFF;stroke-width:2;stroke-linecap:round;stroke-miterlimit:10;}
</style>
	<path class="st35" d="M37.5,117.4h-2.9c-9.7,0-17.6-7.9-17.6-17.6V87.6C17,77.9,24.9,70,34.6,70h2.9c9.7,0,17.6,7.9,17.6,17.6v12.3
		C55.1,109.5,47.2,117.4,37.5,117.4z"/>
	<line class="st35" x1="24.1" y1="84.7" x2="24.1" y2="108.6"/>
	<line class="st35" x1="48" y1="84.7" x2="48" y2="108.6"/>
	<path class="st35" d="M43.4,60.7c0-0.4,0-0.8,0-1.2c0,0,0,0,0-0.1c0-4.1-3.3-7.5-7.5-7.5c-4.1,0-7.5,3.3-7.5,7.5c0,0,0,0,0,0.1
		c0,0.4,0,0.8,0,1.2c-0.1,1.2,0,2.6,0.4,4.2c1.6,7.2,3.7,8.7,7.1,8.7v0h0l0,0l0,0l0,0l0,0l0,0v0c3.3,0,5.5-1.5,7.1-8.7
		C43.4,63.3,43.5,61.9,43.4,60.7z"/>
	<path class="st35" d="M79.8,121.4h-2.3c-9.7,0-17.6-7.9-17.6-17.6V91.6c0-9.7,7.9-17.6,17.6-17.6h2.3C89.5,74,98,81.9,98,91.6v12.3
		C98,113.5,89.5,121.4,79.8,121.4z"/>
	<line class="st35" x1="67" y1="88.7" x2="67" y2="112.6"/>
	<line class="st35" x1="91" y1="88.7" x2="91" y2="112.6"/>
	<path class="st35" d="M85.7,64.7c0-0.4,0-0.8,0-1.2c0,0,0,0,0-0.1c0-4.1-3.3-7.5-7.5-7.5c-4.1,0-7.5,3.3-7.5,7.5c0,0,0,0,0,0.1
		c0,0.4,0,0.8,0,1.2c-0.1,1.2,0,2.6,0.4,4.2c1.6,7.2,3.7,8.7,7.1,8.7v0h0l0,0l0,0l0,0l0,0l0,0v0c3.3,0,5.5-1.5,7.1-8.7
		C85.7,67.3,85.8,65.9,85.7,64.7z"/>
	<rect x="4" y="103.1" class="st1" width="99" height="27.9"/>
	<path class="st36" d="M82.5,18h-23c-3.6,0-6.5,2.9-6.5,6.5v14.4c0,3.6,3.4,6,7,6h15.5l2.7,6l2.8-6h1c3.6,0,7-3.4,7-7V24.5
		C89,20.9,86.1,18,82.5,18z"/>
	<path class="st35" d="M25.5,11h26c3.6,0,6.5,2.9,6.5,6.5v14c0,3.6-2.9,6.5-6.5,6.5H39l-3.3,6L32,38h-6.5c-3.6,0-6.5-2.9-6.5-6.5
		v-14C19,13.9,21.9,11,25.5,11z"/>

</svg>
