<svg class="pricing-table-icon" version="1.1" xmlns="http://www.w3.org/2000/svg" xmlns:xlink="http://www.w3.org/1999/xlink" x="0px" y="0px" viewBox="0 0 56 63" style="enable-background:new 0 0 56 63;" xml:space="preserve">
    <g>
        <rect x="6" y="43" class="st8" width="2" height="4"/>
        <rect x="11" y="43" class="st8" width="2" height="4"/>
        <rect x="16" y="43" class="st8" width="2" height="4"/>
        <rect x="21" y="43" class="st8" width="2" height="4"/>
        <rect x="6" y="52" class="st8" width="2" height="4"/>
        <rect x="11" y="52" class="st8" width="2" height="4"/>
        <rect x="16" y="52" class="st8" width="2" height="4"/>
        <rect x="21" y="52" class="st8" width="2" height="4"/>
        <path class="st8" d="M42,18V0H14v36H0v27h27h2h27V18H42z M27,61H2V38h25V61z M27,18v18H16V2h24v16H27z M54,61H29V36V20h25V61z"/>
        <rect x="33" y="25" class="st8" width="2" height="4"/>
        <rect x="38" y="25" class="st8" width="2" height="4"/>
        <rect x="43" y="25" class="st8" width="2" height="4"/>
        <rect x="48" y="25" class="st8" width="2" height="4"/>
        <rect x="33" y="34" class="st8" width="2" height="4"/>
        <rect x="38" y="34" class="st8" width="2" height="4"/>
        <rect x="43" y="34" class="st8" width="2" height="4"/>
        <rect x="48" y="34" class="st8" width="2" height="4"/>
        <rect x="33" y="43" class="st8" width="2" height="4"/>
        <rect x="38" y="43" class="st8" width="2" height="4"/>
        <rect x="43" y="43" class="st8" width="2" height="4"/>
        <rect x="48" y="43" class="st8" width="2" height="4"/>
        <rect x="33" y="52" class="st8" width="2" height="4"/>
        <rect x="38" y="52" class="st8" width="2" height="4"/>
        <rect x="43" y="52" class="st8" width="2" height="4"/>
        <rect x="48" y="52" class="st8" width="2" height="4"/>
        <rect x="21" y="7" class="st8" width="2" height="25"/>
        <rect x="27" y="7" class="st8" width="2" height="9"/>
        <rect x="33" y="7" class="st8" width="2" height="9"/>
    </g>
</svg>