<svg class="main-feature-icon" version="1.1" xmlns="http://www.w3.org/2000/svg" xmlns:xlink="http://www.w3.org/1999/xlink" x="0px" y="0px" viewBox="0 0 32 32" style="enable-background:new 0 0 32 32;" xml:space="preserve">
  <path d="M16,0C7.2,0,0,7.2,0,16s7.2,16,16,16s16-7.2,16-16S24.8,0,16,0z M16,30C8.3,30,2,23.7,2,16S8.3,2,16,2 s14,6.3,14,14S23.7,30,16,30z"/>
  <path d="M20.6,6.3c-2.4,3.7-6.4,10.1-6.8,11c-0.6,1.3-0.1,2.9,1,3.4s2.6-0.2,3.2-1.5c0.4-0.9,2.4-8.2,3.5-12.5 C21.6,6.1,20.9,5.8,20.6,6.3z"/>
  <path d="M16.5,9c0.4-0.6,0.7-1.2,1.2-1.9C17.1,7.1,16.6,7,16,7c-5,0-9,4-9,9h2c0-3.9,3.1-7,7-7 C16.2,9,16.3,9,16.5,9z"/>
  <path d="M22,12.4c0.6,1,1,2.3,1,3.6h2c0-2.3-0.9-4.4-2.3-6C22.4,10.9,22.2,11.7,22,12.4z"/>
</svg>