<svg version="1.1" xmlns="http://www.w3.org/2000/svg" xmlns:xlink="http://www.w3.org/1999/xlink" x="0px" y="0px" width="130px" height="130px" viewBox="0 0 130 130" style="enable-background:new 0 0 130 130;" xml:space="preserve">
<style type="text/css">
	.sf-st0{fill:none;stroke:#FF6F42;stroke-width:2;stroke-miterlimit:10;}
	.sf-st1{fill:none;stroke:#FF6F42;stroke-miterlimit:10;}
	.sf-st2{fill:none;stroke:#FF6F42;stroke-width:2;stroke-linecap:round;stroke-miterlimit:10;}
	.sf-st3{fill:none;stroke:#FF6F42;stroke-width:2;stroke-linejoin:round;stroke-miterlimit:10;}
	.sf-st4{fill:#FF6F42;}
</style>
<g>
	<path class="sf-st0" d="M85,111V83h-2V53h-2V23h-5v4H54v-4h-5v30h-2v30h-2v25 M58,117v-16c0-1.7,1.3-3,3-3h8c1.7,0,3,1.3,3,3v10 M74,83h-2v3c0,1.7-1.3,3-3,3h-8c-1.7,0-3-1.3-3-3v-3h-2V67c0-1.7,1.3-3,3-3h12c1.7,0,3,1.3,3,3V83z M76,53h-2v5H56v-5h-2V36 c0-1.7,1.3-3,3-3h16c1.7,0,3,1.3,3,3V53z"/>
	<path class="sf-st0" d="M49,25C42.6,48.3,24.8,66.9,2,74.4"/>
	<path class="sf-st0" d="M82.9,72c7.1,6.6,15.2,12.1,24.1,16.4"/>
	<path class="sf-st0" d="M56.7,33c3.3,9,7.9,17.4,13.6,25"/>
	<line class="sf-st1" x1="37.5" y1="49" x2="37.5" y2="105"/>
	<line class="sf-st1" x1="26.5" y1="61" x2="26.5" y2="95"/>
	<line class="sf-st1" x1="15.5" y1="69" x2="15.5" y2="94"/>
	<line class="sf-st1" x1="94.5" y1="53" x2="94.5" y2="98"/>
	<line class="sf-st1" x1="105.5" y1="66" x2="105.5" y2="88"/>
	<line class="sf-st1" x1="116.5" y1="75" x2="116.5" y2="88"/>
	<path class="sf-st2" d="M81.3,24C73.8,59.8,43.3,87.1,6,89.8"/>
	<path class="sf-st2" d="M81.3,24c5.3,25.5,22.9,46.8,45.7,57.8"/>
	<path class="sf-st3" d="M81,114.2c-0.6-0.1-1.3-0.2-2-0.2c-1.6,0-3.2,0.4-4.5,1.1c-1.2-3-4.1-5.1-7.5-5.1c-4.4,0-8,3.6-8,8 c0,0.2,0,0.4,0,0.5c-1.4-1-3.2-1.5-5-1.5"/>
	<path class="sf-st3" d="M126,82c-3.8,0.4-7.1,2.8-8.4,6.4c-0.7-0.2-1.4-0.4-2.1-0.5c-10.9-1.9-21.2,5.4-23.1,16.3 c-0.3,1.9-0.4,3.9-0.2,5.7"/>
	<path class="sf-st2" d="M78.2,121c1-6.2,6.3-11,12.8-11c3,0,5.8,1,8,2.8"/>
	<path class="sf-st3" d="M52,128c1.3-2,2-4.4,2-7c0-7.2-5.8-13-13-13c-0.7,0-1.4,0.1-2.2,0.2C36,99.9,28.2,94,19,94 c-3.6,0-7,0.9-10,2.5"/>
	<path class="sf-st4" d="M65,2c34.7,0,63,28.3,63,63s-28.3,63-63,63S2,99.7,2,65S30.3,2,65,2 M65,0C29.1,0,0,29.1,0,65s29.1,65,65,65 s65-29.1,65-65S100.9,0,65,0L65,0z"/>
</g>
</svg>
