<svg version="1.1" xmlns="http://www.w3.org/2000/svg" xmlns:xlink="http://www.w3.org/1999/xlink" x="0px" y="0px" width="32px" height="32px" viewBox="0 0 32 32" style="enable-background:new 0 0 32 32;" xml:space="preserve">
<style type="text/css">
	.st0{fill:#007BB5;}
	.st1{fill:#FFFFFF;}
</style>
	<path class="st0" d="M23.7,7H8.3C7.6,7,7,7.6,7,8.3v15.4C7,24.4,7.6,25,8.3,25h15.3c0.7,0,1.3-0.6,1.3-1.3V8.3 C25,7.6,24.4,7,23.7,7z"/>
	<path class="st1" d="M9.9,13.8h2.6v8.3H9.9V13.8z M11.2,9.7c0.8,0,1.5,0.7,1.5,1.5c0,0.8-0.7,1.5-1.5,1.5c-0.8,0-1.5-0.7-1.5-1.5 C9.7,10.4,10.4,9.7,11.2,9.7"/>
	<path class="st1" d="M14.1,13.8h2.5V15h0c0.3-0.6,1.2-1.3,2.4-1.3c2.6,0,3.1,1.7,3.1,3.9v4.5h-2.6v-4c0-1,0-2.2-1.3-2.2 c-1.3,0-1.5,1-1.5,2.1v4.1h-2.6V13.8z"/>
</svg>
