<?xml version="1.0" encoding="utf-8"?>
<!-- Generator: Adobe Illustrator 19.0.1, SVG Export Plug-In . SVG Version: 6.00 Build 0)  -->
<!DOCTYPE svg PUBLIC "-//W3C//DTD SVG 1.1//EN" "http://www.w3.org/Graphics/SVG/1.1/DTD/svg11.dtd">
<svg version="1.1" xmlns="http://www.w3.org/2000/svg" xmlns:xlink="http://www.w3.org/1999/xlink" x="0px" y="0px" viewBox="0 0 32 32" style="enable-background:new 0 0 32 32;" xml:space="preserve">
<style type="text/css">
	.st10{fill:#CCCCCC;}
</style>
	<path class="st10" d="M16,0C7.2,0,0,7.2,0,16s7.2,16,16,16s16-7.2,16-16S24.8,0,16,0z M16,7c2.2,0,4,1.8,4,4c0,2.2-1.8,4-4,4 s-4-1.8-4-4C12,8.8,13.8,7,16,7z M24,23H8v-2c0-2.2,3.6-4,8-4c4.4,0,8,1.8,8,4V23z"/>
</svg>
