<?xml version="1.0" encoding="utf-8"?>
<!-- Generator: Adobe Illustrator 19.0.1, SVG Export Plug-In . SVG Version: 6.00 Build 0)  -->
<!DOCTYPE svg PUBLIC "-//W3C//DTD SVG 1.1//EN" "http://www.w3.org/Graphics/SVG/1.1/DTD/svg11.dtd">
<svg version="1.1" id="Layer_1" xmlns="http://www.w3.org/2000/svg" xmlns:xlink="http://www.w3.org/1999/xlink" x="0px" y="0px"
	 viewBox="0 0 535 300" style="enable-background:new 0 0 535 300;" xml:space="preserve">
<style type="text/css">
	.st0{opacity:0.8;fill:none;stroke:#2E9FFF;stroke-width:4;stroke-miterlimit:10;}
	.st1{opacity:0.8;fill:none;stroke:url(#XMLID_5_);stroke-width:4;stroke-miterlimit:10;}
	.st2{fill:#FFFFFF;}
	.st3{fill:#A2AEB4;}
	.st4{fill:none;stroke:#A2AEB4;stroke-width:2;stroke-miterlimit:10;}
	.st5{opacity:0.9;clip-path:url(#XMLID_22_);fill:#FFFFFF;}
	.st6{opacity:0.65;clip-path:url(#XMLID_22_);fill:#FFFFFF;}
	.st7{fill:#2E9FFF;}
	.st8{opacity:0.65;fill:#FFFFFF;}
	.st9{fill:#4AD3AC;}
	.st10{fill:#99CDEF;stroke:#667682;stroke-miterlimit:10;}
	.st11{clip-path:url(#XMLID_29_);fill:#C4E0F5;}
	.st12{fill:#B0A2A2;}
	.st13{fill:#FFF3CE;}
	.st14{fill:#FDF4F5;}
	.st15{fill:#CEE8D6;}
	.st16{fill:none;stroke:#667682;stroke-miterlimit:10;}
	.st17{fill:none;stroke:#667682;stroke-linecap:round;stroke-miterlimit:10;}
	.st18{fill:#667682;}
	.st19{opacity:0.04;}
	.st20{fill:#FCBB42;}
	.st21{opacity:0.5;fill:none;stroke:#F96155;stroke-width:4;stroke-linecap:round;stroke-miterlimit:10;}
	.st22{fill:#F96155;}
	.st23{opacity:0.8;fill:none;stroke:url(#XMLID_31_);stroke-width:4;stroke-miterlimit:10;}
	.st24{opacity:0.6;fill:#FFFFFF;}
	.st25{fill:#FCE69F;stroke:#667682;stroke-miterlimit:10;}
	.st26{clip-path:url(#XMLID_33_);fill:#FFF3CE;}
	.st27{fill:#D7EAF8;}
	.st28{fill:#DCCDC9;}
	.st29{fill:none;stroke:#667682;stroke-linecap:round;stroke-linejoin:round;stroke-miterlimit:10;}
	.st30{opacity:0.8;fill:none;stroke:url(#XMLID_35_);stroke-width:4;stroke-miterlimit:10;}
	.st31{opacity:0.8;fill:none;stroke:url(#XMLID_36_);stroke-width:4;stroke-miterlimit:10;}
	.st32{clip-path:url(#XMLID_38_);fill:#FFF3CE;}
</style>

<defs>
 	<filter id="dropshadow" x="-20%" y="-20%" width="140%" height="140%">
	    <feGaussianBlur in="SourceAlpha" result="blur-out" stdDeviation="4" />
	    <feOffset in="blur-out" result="the-shadow" dx="0" dy="1"/>
	    <feColorMatrix in="the-shadow" result="color-out" type="matrix"
	      values="0 0 0 0   0
	              0 0 0 0   0
	              0 0 0 0   0
	              0 0 0 .3 0"/>
	    <feBlend in="SourceGraphic" in2="color-out" mode="normal"/>
  </filter>
</defs>

<line id="XMLID_1417_" class="st0" x1="373" y1="240.7" x2="373" y2="77.9"/>
<line id="XMLID_4_" class="st0" x1="189.3" y1="77.9" x2="338" y2="77.9"/>
<path id="XMLID_1416_" class="st0" d="M415.2,240.7h-84.7c-83,0-150.3-67.3-150.3-150.3V77.9"/>
<linearGradient id="XMLID_5_" gradientUnits="userSpaceOnUse" x1="0" y1="77.9334" x2="114" y2="77.9334">
	<stop  offset="0" style="stop-color:#2E9FFF;stop-opacity:0"/>
	<stop  offset="0.8867" style="stop-color:#2E9FFF"/>
</linearGradient>
<line id="XMLID_1_" class="st1" x1="0" y1="77.9" x2="114" y2="77.9"/>
<g id="XMLID_1329_">
	<g id="XMLID_1333_">
		<path class="st2" d="M300,294c-3.9,0-7-3.1-7-7v-99c0-3.9,3.1-7,7-7h147c3.9,0,7,3.1,7,7v99c0,3.9-3.1,7-7,7H300z"/>
		<path class="st3" d="M447,182c3.3,0,6,2.7,6,6v99c0,3.3-2.7,6-6,6H300c-3.3,0-6-2.7-6-6v-99c0-3.3,2.7-6,6-6H447 M447,180H300
			c-4.4,0-8,3.6-8,8v99c0,4.4,3.6,8,8,8h147c4.4,0,8-3.6,8-8v-99C455,183.6,451.4,180,447,180L447,180z"/>
	</g>
	<line id="XMLID_1330_" class="st4" x1="310" y1="259" x2="432" y2="259"/>
	<line id="XMLID_3_" class="st4" x1="310" y1="267" x2="432" y2="267"/>
	<line id="XMLID_8_" class="st4" x1="310" y1="275" x2="412" y2="275"/>
</g>
<g id="XMLID_1312_">
	<defs>
		<rect id="XMLID_1313_" x="310" y="204" width="46" height="45.9"/>
	</defs>
	<use xlink:href="#XMLID_1313_"  style="overflow:visible;fill:#4AD3AC;"/>
	<clipPath id="XMLID_22_">
		<use xlink:href="#XMLID_1313_"  style="overflow:visible;"/>
	</clipPath>
	<polygon id="XMLID_1315_" class="st5" points="328.4,271.8 309.7,253.1 328.4,234.5 347.1,253.1 	"/>
	<polygon id="XMLID_1314_" class="st6" points="351.4,257.4 332.7,238.8 346.5,225 365.2,243.7 	"/>
</g>
<rect id="XMLID_1311_" x="362" y="204" class="st7" width="70.8" height="45.9"/>
<circle id="XMLID_1295_" class="st8" cx="324.3" cy="220.7" r="5.6"/>
<polygon id="XMLID_1294_" class="st8" points="391,220 403.2,227.2 391,235 "/>
<polygon id="XMLID_1275_" class="st9" points="438,163 438,183.9 438,194 448,184 471,184 471,163 "/>
<g id="XMLID_1232_" style="filter:url(#dropshadow)">
	<g>
		<g>
			<g id="XMLID_1106_">
				<defs>
					<circle id="XMLID_1107_" cx="231" cy="201.5" r="21.6"/>
				</defs>
				<clipPath id="XMLID_28_">
					<use xlink:href="#XMLID_1107_"  style="overflow:visible;"/>
				</clipPath>
			</g>
		</g>
		<g>
			<circle id="XMLID_1074_" class="st10" cx="231" cy="201.5" r="22.1"/>
			<g id="XMLID_1071_">
				<defs>
					<circle id="XMLID_1072_" cx="231" cy="201.5" r="21.6"/>
				</defs>
				<clipPath id="XMLID_29_">
					<use xlink:href="#XMLID_1072_"  style="overflow:visible;"/>
				</clipPath>
				<circle id="XMLID_1073_" class="st11" cx="230.9" cy="189.3" r="19.5"/>
			</g>
			<path id="XMLID_1070_" class="st2" d="M222.9,205.1v16.6c0,0,2.8,1.5,7.9,1.5c5.1,0,8.1-1.5,8.1-1.5v-16.6l-4.9-2.1v3
				c0,0-0.4,2.9-3.2,2.9s-3.2-2.9-3.2-2.9v-3L222.9,205.1z"/>
			<path id="XMLID_1069_" class="st12" d="M219.4,183.6c0,0,8.4,0,17.6-9.8c0,0,0.5,6.2,5,6.2l0.3,3.6c0,0-0.5,5.5-1,8.4
				c-0.2,1.3-1.2,2.8-2.4,4.3c0,0,0.8,6,8.7,6s9.2-7.7,9.2-7.7s-2.3,1.2-3.7,1.2c-1.4,0-4.1,0.8-4.1-6.7s-5.2-8.1-5.2-8.1v-2.3
				c0-7.1-5.8-12.9-12.9-12.9c-7.1,0-12.9,5.8-12.9,12.9v4.9H219.4"/>
			<rect id="XMLID_1068_" x="222.9" y="206.4" class="st13" width="16" height="2.2"/>
			<rect id="XMLID_1067_" x="222.9" y="210.5" class="st13" width="16" height="2.2"/>
			<rect id="XMLID_1066_" x="222.9" y="214.7" class="st13" width="16" height="2.2"/>
			<rect id="XMLID_1065_" x="222.9" y="218.8" class="st13" width="16" height="2.2"/>
			<path id="XMLID_1064_" class="st14" d="M243.7,183.6h-1.4L242,180c-4.5,0-5-6.2-5-6.2c-9.2,9.8-17.6,9.8-17.6,9.8H218
				c0,0-1.2,0-1.2,1.4s0.2,2.8,0.2,2.8s0.3,2.7,3.3,2.7c0.1,0.5,0.1,1,0.2,1.4c0.4,2.6,3.8,6.6,7.2,8.4v5.2c0,1.8,1.4,3.2,3.2,3.2
				s3.2-1.4,3.2-3.2v-5.2c3.4-1.8,6.7-5.7,7.2-8.4c0.1-0.4,0.2-0.9,0.2-1.4c2.9-0.1,3.2-2.7,3.2-2.7s0.2-1.4,0.2-2.8
				S243.7,183.6,243.7,183.6z"/>
			<path id="XMLID_1063_" class="st15" d="M238.9,221.6v-16.6c0,0,6.8,2.1,6.8,8.5v3.8C245.8,217.4,242.1,220.7,238.9,221.6z"/>
			<path id="XMLID_1062_" class="st15" d="M222.9,221.6v-16.6c0,0-6.8,2.1-6.8,8.5v3.8C216.1,217.4,219.8,220.7,222.9,221.6z"/>
			<path id="XMLID_1061_" class="st16" d="M230.8,165.8c-7.1,0-12.9,5.8-12.9,12.9v4.9h1.4c0,0,0.6,5.5,1,8.4
				c0.5,3.5,6.3,9.4,10.5,9.4c4.2,0,9.8-5.7,10.5-9.4c0.5-2.9,1-8.4,1-8.4h1.4v-4.9C243.7,171.6,237.9,165.8,230.8,165.8z"/>
			<path id="XMLID_1060_" class="st16" d="M219.4,183.6c0,0,8.4,0,17.6-9.8c0,0,0.5,6.2,5,6.2l0.3,3.6"/>
			<path id="XMLID_1059_" class="st16" d="M232,188.6v3c0,0.7-0.6,1.3-1.3,1.3h-1.1"/>
			<path id="XMLID_1058_" class="st16" d="M242.7,183.6h1c0,0,1.2,0,1.2,1.4c0,1.4-0.2,2.8-0.2,2.8s-0.3,2.7-3.3,2.7"/>
			<path id="XMLID_1057_" class="st16" d="M219,183.6h-1c0,0-1.2,0-1.2,1.4c0,1.4,0.2,2.8,0.2,2.8s0.3,2.7,3.3,2.7"/>
			<path id="XMLID_1056_" class="st16" d="M243.7,180.9c0,0,5.2,0.7,5.2,8.1s2.7,6.7,4.1,6.7c1.4,0,3.7-1.2,3.7-1.2
				s-1.3,7.7-9.2,7.7s-8.7-6-8.7-6"/>
			<path id="XMLID_1055_" class="st16" d="M234.1,200.3v5.3c0,1.8-1.4,3.2-3.2,3.2l0,0c-1.8,0-3.2-1.4-3.2-3.2v-5.3"/>
			<path id="XMLID_1054_" class="st16" d="M215.9,217.6v-3.9c0-2.3,0.9-5.1,3.7-7c2.8-1.8,8-3.8,8-3.8"/>
			<path id="XMLID_1053_" class="st16" d="M234.1,203c0,0,5.2,1.9,8,3.8c2.8,1.8,3.7,4.7,3.7,7v4"/>
			<path id="XMLID_1052_" class="st16" d="M229.3,186.5c0-0.5-0.7-2.6-3.8-2.6c-3.5,0-3,0-3,0s-2.5,0-2.5,2.3c0,2.4,2.3,4.6,4.6,4.6
				C227,190.8,229.3,190.2,229.3,186.5z"/>
			<path id="XMLID_1051_" class="st16" d="M232.6,186.5c0-0.5,0.7-2.6,3.8-2.6c3.5,0,3,0,3,0s2.5,0,2.5,2.3c0,2.4-2.3,4.6-4.6,4.6
				C234.9,190.8,232.6,190.2,232.6,186.5z"/>
			<path id="XMLID_1050_" class="st16" d="M229.3,186.7c0,0,0.7-0.5,1.6-0.5s1.6,0.5,1.6,0.5"/>
			<path id="XMLID_1049_" class="st17" d="M235.9,182.4c0,0,0.7-0.7,1.7-0.7s1.7,0.7,1.7,0.7"/>
			<path id="XMLID_1048_" class="st17" d="M226,181.8c0.6,0.2,0.9,0.6,0.9,0.6"/>
			<circle id="XMLID_1047_" class="st18" cx="224.8" cy="185.8" r="1"/>
			<path id="XMLID_1046_" class="st17" d="M227.6,195.8c0,0,1.7,0.7,3.2,0.7s3.2-0.7,3.2-0.7"/>
			<path id="XMLID_1045_" class="st17" d="M232.6,173.1c0,0-4.2,4.5-10.3,6.5"/>
			<path id="XMLID_1043_" class="st17" d="M214.8,179.1c0,0,5.1-0.2,9.8-3.4"/>
			<circle id="XMLID_1042_" class="st18" cx="237.3" cy="185.8" r="1"/>
			<line id="XMLID_1039_" class="st16" x1="222.9" y1="205.1" x2="222.9" y2="222.2"/>
			<line id="XMLID_1038_" class="st16" x1="238.9" y1="205.1" x2="238.9" y2="222.1"/>
			<path id="XMLID_1037_" class="st19" d="M216.1,212.7c0,0,5,6.4,14.7,6.4c9.7,0,14.7-6.4,14.7-6.4v5c0,0-5.8,5.4-14.6,5.6
				c0,0-9.6-0.4-15-5.9L216.1,212.7z"/>
		</g>
		<g>
			<g id="XMLID_1033_">
				<defs>
					<circle id="XMLID_1034_" cx="231" cy="201.5" r="21.6"/>
				</defs>
				<clipPath id="XMLID_30_">
					<use xlink:href="#XMLID_1034_"  style="overflow:visible;"/>
				</clipPath>
			</g>
		</g>
	</g>
</g>
<g id="XMLID_301_">
	<path class="st2" d="M101,134c-3.9,0-7-3.1-7-7V28c0-3.9,3.1-7,7-7h147c3.9,0,7,3.1,7,7v99c0,3.9-3.1,7-7,7H101z"/>
	<path class="st3" d="M248,22c3.3,0,6,2.7,6,6v99c0,3.3-2.7,6-6,6H101c-3.3,0-6-2.7-6-6V28c0-3.3,2.7-6,6-6H248 M248,20H101
		c-4.4,0-8,3.6-8,8v99c0,4.4,3.6,8,8,8h147c4.4,0,8-3.6,8-8V28C256,23.6,252.4,20,248,20L248,20z"/>
</g>
<rect id="XMLID_300_" x="189" y="45" class="st20" width="47" height="47"/>
<line id="XMLID_299_" class="st21" x1="116" y1="109" x2="235" y2="109"/>
<line id="XMLID_298_" class="st4" x1="114" y1="91" x2="156" y2="91"/>
<line id="XMLID_293_" class="st4" x1="114" y1="46" x2="183" y2="46"/>
<line id="XMLID_6_" class="st4" x1="114" y1="55" x2="183" y2="55"/>
<line id="XMLID_11_" class="st4" x1="114" y1="64" x2="183" y2="64"/>
<line id="XMLID_12_" class="st4" x1="114" y1="73" x2="183" y2="73"/>
<line id="XMLID_13_" class="st4" x1="114" y1="82" x2="183" y2="82"/>
<circle id="XMLID_292_" class="st22" cx="134" cy="109" r="6"/>
<path id="XMLID_289_" class="st2" d="M199,59.2c1.8,0.1,3.5,0.5,5.2,1c0.6,0.2,1.2,0.4,1.7,0.6c0.1,0,0.3,0,0.3,0.2
	c0,0.1-0.1,0.2-0.2,0.2c-0.5,0.4-1,0.8-1.4,1.3c-0.2,0.2-0.3,0.2-0.6,0.2c-0.5-0.1-1-0.1-1.5,0c-0.8,0.2-1.1,0.7-0.9,1.5
	c0.1,0.4,0.4,0.8,0.6,1.2c1,1.3,2.2,2.4,3.5,3.4c3.7,2.9,7.7,5.2,12.2,6.7c1.2,0.4,2.3,0.7,3.6,0.7c1.6,0,2.1-0.9,1.3-2.2
	c-0.5-0.7-0.6-1.4-0.3-2.2c0.1-0.3,0.1-0.6,0.2-1c0-0.2,0.1-0.4,0.4-0.2c1.8,1.5,3.5,3,4.8,5c0.4,0.6,0.8,1.3,0.8,2
	c0,0.8-0.3,1.4-1.1,1.6c-1,0.4-2.1,0.3-3.2,0.1c-3-0.5-5.7-1.5-8.4-2.7c-5-2.3-9.7-5.1-14-8.5c-1.8-1.4-3.5-3-4.8-4.9
	c-0.5-0.7-0.9-1.4-0.9-2.3c0-0.8,0.3-1.3,1.1-1.6C197.8,59.3,198.4,59.2,199,59.2z"/>
<circle id="XMLID_288_" class="st8" cx="212.4" cy="69.4" r="10.3"/>
<linearGradient id="XMLID_31_" gradientUnits="userSpaceOnUse" x1="419" y1="-972.0667" x2="535" y2="-972.0667" gradientTransform="matrix(-1 0 0 -1 954 -894.1334)">
	<stop  offset="0" style="stop-color:#2E9FFF;stop-opacity:0"/>
	<stop  offset="0.8867" style="stop-color:#2E9FFF"/>
</linearGradient>
<line id="XMLID_7_" class="st23" x1="535" y1="77.9" x2="419" y2="77.9"/>
<g id="XMLID_333_">
	<path class="st2" d="M299,134c-3.9,0-7-3.1-7-7V28c0-3.9,3.1-7,7-7h147c3.9,0,7,3.1,7,7v99c0,3.9-3.1,7-7,7H299z"/>
	<path class="st3" d="M446,22c3.3,0,6,2.7,6,6v99c0,3.3-2.7,6-6,6H299c-3.3,0-6-2.7-6-6V28c0-3.3,2.7-6,6-6H446 M446,20H299
		c-4.4,0-8,3.6-8,8v99c0,4.4,3.6,8,8,8h147c4.4,0,8-3.6,8-8V28C454,23.6,450.4,20,446,20L446,20z"/>
</g>
<rect id="XMLID_317_" x="312.2" y="46" class="st7" width="45.8" height="46"/>
<polygon id="XMLID_302_" class="st8" points="329.1,62.1 340.7,68.8 329.1,75.5 "/>
<polygon id="XMLID_9_" class="st22" points="238,3 238,23.9 238,34 248,24 271,24 271,3 "/>
<line id="XMLID_19_" class="st4" x1="365" y1="91" x2="434" y2="91"/>
<line id="XMLID_20_" class="st4" x1="365" y1="100" x2="434" y2="100"/>
<line id="XMLID_21_" class="st4" x1="365" y1="109" x2="403" y2="109"/>
<line id="XMLID_18_" class="st4" x1="365" y1="46" x2="434" y2="46"/>
<line id="XMLID_17_" class="st4" x1="365" y1="55" x2="434" y2="55"/>
<line id="XMLID_16_" class="st4" x1="365" y1="64" x2="434" y2="64"/>
<line id="XMLID_15_" class="st4" x1="365" y1="73" x2="434" y2="73"/>
<line id="XMLID_14_" class="st4" x1="365" y1="82" x2="434" y2="82"/>
<rect x="305" y="37" class="st24" width="137" height="83"/>
<g id="XMLID_332_" style="filter:url(#dropshadow)">
	<g>
		<g>
			<g id="XMLID_947_">
				<defs>
					<circle id="XMLID_950_" cx="371" cy="78.8" r="21.6"/>
				</defs>
				<clipPath id="XMLID_32_">
					<use xlink:href="#XMLID_950_"  style="overflow:visible;"/>
				</clipPath>
			</g>
		</g>
		<g>
			<circle id="XMLID_731_" class="st25" cx="371" cy="78.8" r="22.1"/>
			<g id="XMLID_726_">
				<defs>
					<circle id="XMLID_727_" cx="371" cy="78.8" r="21.6"/>
				</defs>
				<clipPath id="XMLID_33_">
					<use xlink:href="#XMLID_727_"  style="overflow:visible;"/>
				</clipPath>
				<circle id="XMLID_728_" class="st26" cx="371" cy="66.5" r="19.5"/>
			</g>
			<path id="XMLID_725_" class="st18" d="M382,61.3c0,0-1.9-0.8-1.9-2.7s0-5.1,0-5.1s-2.5-2.4-9.3-2.4s-9.3,2.4-9.3,2.4s0,3.1,0,5.1
				s-1.9,2.7-1.9,2.7c-0.1-1.1-0.2-1.9-0.2-1.9h-1.1l-0.5-7.8c2.1-5.1,7.1-8.5,13-8.5c5.9,0,11,3.5,13.1,8.7l-0.5,7.6h-1.1
				C382.3,59.4,382.2,60.2,382,61.3z"/>
			<path id="XMLID_724_" class="st27" d="M365,82c-2,0.6-4.6,1.5-6.2,2.6c-2.8,1.8-3.7,4.7-3.7,7v2.1c0,0,5.9,6.9,16,6.9
				c10.1,0,16-7,16-7v-1.9c0-2.3-0.9-5.1-3.7-7c-1.6-1.1-4.3-2-6.3-2.6c0,0,0.5-2.5-2.6-2.5s-7.1,0-7.1,0s-2.5,0-2.5,1.5
				C365,82.4,365,82,365,82z"/>
			<path id="XMLID_723_" class="st28" d="M383.5,59.4l-1.2,0c0,0,0,0.8-0.2,1.9c0,0-2-0.8-2-2.7s0-5.1,0-5.1s-2.5-2.4-9.3-2.4
				s-9.3,2.4-9.3,2.4s0,3.1,0,5.1s-2,2.7-2,2.7l-0.2-1.9l-1.1,0c0,0-1.6,0-1.6,1.4c0,1.4,0.2,2.8,0.2,2.8s0.3,2.7,3.3,2.7l0.1,0.1
				c0.2,1.1,0.3,2.2,0.4,3c0.4,2,3.2,6.9,6.8,9v5.4c0,1.8,1.6,3.3,3.5,3.3l0,0c2,0,3.5-1.5,3.5-3.3v-5.6c3.4-2.2,6-6.8,6.4-8.8
				c0.1-0.8,0.3-1.9,0.4-3c3,0,3.3-2.7,3.3-2.7s0.2-1.4,0.2-2.8C384.9,59.4,383.5,59.4,383.5,59.4z"/>
			<path id="XMLID_722_" class="st16" d="M384.9,61.8c0,1-0.1,1.8-0.1,1.8s-0.3,2.7-3.3,2.7"/>
			<path id="XMLID_721_" class="st16" d="M383.5,59.4c0,0,1.4,0,1.4,1.4c0,0.3,0,0.7,0,1"/>
			<path id="XMLID_720_" class="st16" d="M358.1,59.4c0,0-1.4,0-1.4,1.4c0,1.4,0.2,2.8,0.2,2.8s0.3,2.7,3.3,2.7"/>
			<path id="XMLID_719_" class="st16" d="M374.5,78.3v5.5c0,1.8-1.6,3.3-3.5,3.3l0,0c-2,0-3.5-1.5-3.5-3.3v-5.4"/>
			<path id="XMLID_718_" class="st16" d="M377.1,81.9c2,0.6,4.6,1.5,6.3,2.6c2.8,1.8,3.7,4.7,3.7,7V94"/>
			<path id="XMLID_717_" class="st16" d="M365,82c-2,0.6-4.6,1.5-6.2,2.6c-2.8,1.8-3.7,4.7-3.7,7v2.7"/>
			<path id="XMLID_716_" class="st16" d="M370.8,79.4c5,0,9.6-7.3,10.2-10c0.5-3,1.3-10,1.3-10h1.1l0.5-7.6
				c-2.1-5.2-7.1-8.7-13.1-8.7c-5.9,0-10.9,3.4-13,8.5l0.5,7.8h1.1c0,0,0.8,7,1.3,10C361.2,72.1,365.8,79.4,370.8,79.4z"/>
			<path id="XMLID_715_" class="st16" d="M382.1,61.3c0,0-2-0.8-2-2.7s0-5.1,0-5.1s-2.5-2.4-9.3-2.4s-9.3,2.4-9.3,2.4s0,3.1,0,5.1
				s-2,2.7-2,2.7"/>
			<path id="XMLID_714_" class="st17" d="M367.9,70.1c0,0,1.3,0.5,2.9,0.5c1.6,0,2.9-0.5,2.9-0.5"/>
			<path id="XMLID_713_" class="st17" d="M366.9,73.6c0,0,1.7,0.6,3.9,0.6c2.2,0,3.9-0.6,3.9-0.6"/>
			<path id="XMLID_712_" class="st17" d="M369,75.5c0,0,0.9,0.4,1.9,0.4s1.9-0.4,1.9-0.4"/>
			<circle id="XMLID_711_" class="st18" cx="375.9" cy="63.2" r="1.2"/>
			<circle id="XMLID_710_" class="st18" cx="365.7" cy="63.2" r="1.2"/>
			<path id="XMLID_709_" class="st17" d="M374,59.1c0,0,0.8-0.4,1.9-0.4c1,0,1.9,0.4,1.9,0.4"/>
			<path id="XMLID_708_" class="st17" d="M363.9,59.1c0,0,0.8-0.4,1.9-0.4c1,0,1.9,0.4,1.9,0.4"/>
			<path id="XMLID_707_" class="st29" d="M367.4,79.4c0,0-2.5-0.2-2.5,2.5s0,4.6,0,4.6s0.6-1.9,2.6-1.9"/>
			<path id="XMLID_706_" class="st29" d="M374.6,79.4c0,0,2.5-0.2,2.5,2.5s0,4.6,0,4.6s-0.6-1.9-2.6-1.9"/>
			<line id="XMLID_705_" class="st16" x1="371" y1="87.1" x2="371" y2="101"/>
			<path id="XMLID_704_" class="st19" d="M355.5,89.3c0,0,5.4,6.8,15.7,6.8c10.3,0,15.7-6.8,15.7-6.8v5.3c0,0-6.1,5.7-15.6,5.9
				c0,0-7.8,0.9-16-6.3L355.5,89.3z"/>
		</g>
		<g>
			<g id="XMLID_700_">
				<defs>
					<circle id="XMLID_701_" cx="371" cy="78.8" r="21.6"/>
				</defs>
				<clipPath id="XMLID_34_">
					<use xlink:href="#XMLID_701_"  style="overflow:visible;"/>
				</clipPath>
			</g>
		</g>
	</g>
</g>
</svg>
