<?xml version="1.0" encoding="utf-8"?>
<!-- Generator: Adobe Illustrator 19.0.1, SVG Export Plug-In . SVG Version: 6.00 Build 0)  -->
<!DOCTYPE svg PUBLIC "-//W3C//DTD SVG 1.1//EN" "http://www.w3.org/Graphics/SVG/1.1/DTD/svg11.dtd">
<svg version="1.1" id="Layer_1" xmlns="http://www.w3.org/2000/svg" xmlns:xlink="http://www.w3.org/1999/xlink" x="0px" y="0px"
	 viewBox="0 0 535 300" style="enable-background:new 0 0 535 300;" xml:space="preserve">
<style type="text/css">
	.st0{opacity:0.8;fill:none;stroke:#2E9FFF;stroke-width:4;stroke-miterlimit:10;}
	.st1{opacity:0.8;fill:none;stroke:url(#XMLID_5_);stroke-width:4;stroke-miterlimit:10;}
	.st2{fill:#FFFFFF;}
	.st3{fill:#A2AEB4;}
	.st4{fill:none;stroke:#A2AEB4;stroke-width:2;stroke-miterlimit:10;}
	.st5{opacity:0.9;clip-path:url(#XMLID_22_);fill:#FFFFFF;}
	.st6{opacity:0.65;clip-path:url(#XMLID_22_);fill:#FFFFFF;}
	.st7{fill:#2E9FFF;}
	.st8{opacity:0.65;fill:#FFFFFF;}
	.st9{fill:#4AD3AC;}
	.st10{fill:#99CDEF;stroke:#667682;stroke-miterlimit:10;}
	.st11{clip-path:url(#XMLID_29_);fill:#C4E0F5;}
	.st12{fill:#B0A2A2;}
	.st13{fill:#FFF3CE;}
	.st14{fill:#FDF4F5;}
	.st15{fill:#CEE8D6;}
	.st16{fill:none;stroke:#667682;stroke-miterlimit:10;}
	.st17{fill:none;stroke:#667682;stroke-linecap:round;stroke-miterlimit:10;}
	.st18{fill:#667682;}
	.st19{opacity:0.04;}
	.st20{fill:#FCBB42;}
	.st21{opacity:0.5;fill:none;stroke:#F96155;stroke-width:4;stroke-linecap:round;stroke-miterlimit:10;}
	.st22{fill:#F96155;}
	.st23{opacity:0.8;fill:none;stroke:url(#XMLID_31_);stroke-width:4;stroke-miterlimit:10;}
	.st24{opacity:0.6;fill:#FFFFFF;}
	.st25{fill:#FCE69F;stroke:#667682;stroke-miterlimit:10;}
	.st26{clip-path:url(#XMLID_33_);fill:#FFF3CE;}
	.st27{fill:#D7EAF8;}
	.st28{fill:#DCCDC9;}
	.st29{fill:none;stroke:#667682;stroke-linecap:round;stroke-linejoin:round;stroke-miterlimit:10;}
	.st30{opacity:0.8;fill:none;stroke:url(#XMLID_35_);stroke-width:4;stroke-miterlimit:10;}
	.st31{opacity:0.8;fill:none;stroke:url(#XMLID_36_);stroke-width:4;stroke-miterlimit:10;}
	.st32{clip-path:url(#XMLID_38_);fill:#FFF3CE;}
</style>
<defs>
 	<filter id="dropshadow" x="-20%" y="-20%" width="140%" height="140%">
	    <feGaussianBlur in="SourceAlpha" result="blur-out" stdDeviation="4" />
	    <feOffset in="blur-out" result="the-shadow" dx="0" dy="1"/>
	    <feColorMatrix in="the-shadow" result="color-out" type="matrix"
	      values="0 0 0 0   0
	              0 0 0 0   0
	              0 0 0 0   0
	              0 0 0 .3 0"/>
	    <feBlend in="SourceGraphic" in2="color-out" mode="normal"/>
  </filter>
</defs>
<line id="XMLID_466_" class="st0" x1="189.3" y1="149.9" x2="394" y2="149.9"/>
<linearGradient id="XMLID_5_" gradientUnits="userSpaceOnUse" x1="0" y1="149.9334" x2="114" y2="149.9334">
	<stop  offset="0" style="stop-color:#2E9FFF;stop-opacity:0"/>
	<stop  offset="0.8867" style="stop-color:#2E9FFF"/>
</linearGradient>
<line id="XMLID_464_" class="st1" x1="0" y1="149.9" x2="114" y2="149.9"/>
<g id="XMLID_181_">
	<path class="st2" d="M101,206c-3.9,0-7-3.1-7-7v-99c0-3.9,3.1-7,7-7h147c3.9,0,7,3.1,7,7v99c0,3.9-3.1,7-7,7H101z"/>
	<path class="st3" d="M248,94c3.3,0,6,2.7,6,6v99c0,3.3-2.7,6-6,6H101c-3.3,0-6-2.7-6-6v-99c0-3.3,2.7-6,6-6H248 M248,92H101
		c-4.4,0-8,3.6-8,8v99c0,4.4,3.6,8,8,8h147c4.4,0,8-3.6,8-8v-99C256,95.6,252.4,92,248,92L248,92z"/>
</g>
<rect id="XMLID_180_" x="189" y="117" class="st20" width="47" height="47"/>
<line id="XMLID_179_" class="st21" x1="116" y1="181" x2="235" y2="181"/>
<line id="XMLID_178_" class="st4" x1="114" y1="163" x2="156" y2="163"/>
<line id="XMLID_177_" class="st4" x1="114" y1="118" x2="183" y2="118"/>
<line id="XMLID_176_" class="st4" x1="114" y1="127" x2="183" y2="127"/>
<line id="XMLID_175_" class="st4" x1="114" y1="136" x2="183" y2="136"/>
<line id="XMLID_174_" class="st4" x1="114" y1="145" x2="183" y2="145"/>
<line id="XMLID_173_" class="st4" x1="114" y1="154" x2="183" y2="154"/>
<circle id="XMLID_172_" class="st22" cx="134" cy="181" r="6"/>
<path id="XMLID_171_" class="st2" d="M199,131.2c1.8,0.1,3.5,0.5,5.2,1c0.6,0.2,1.2,0.4,1.7,0.6c0.1,0,0.3,0,0.3,0.2
	c0,0.1-0.1,0.2-0.2,0.2c-0.5,0.4-1,0.8-1.4,1.3c-0.2,0.2-0.3,0.2-0.6,0.2c-0.5-0.1-1-0.1-1.5,0c-0.8,0.2-1.1,0.7-0.9,1.5
	c0.1,0.4,0.4,0.8,0.6,1.2c1,1.3,2.2,2.4,3.5,3.4c3.7,2.9,7.7,5.2,12.2,6.7c1.2,0.4,2.3,0.7,3.6,0.7c1.6,0,2.1-0.9,1.3-2.2
	c-0.5-0.7-0.6-1.4-0.3-2.2c0.1-0.3,0.1-0.6,0.2-1c0-0.2,0.1-0.4,0.4-0.2c1.8,1.5,3.5,3,4.8,5c0.4,0.6,0.8,1.3,0.8,2
	c0,0.8-0.3,1.4-1.1,1.6c-1,0.4-2.1,0.3-3.2,0.1c-3-0.5-5.7-1.5-8.4-2.7c-5-2.3-9.7-5.1-14-8.5c-1.8-1.4-3.5-3-4.8-4.9
	c-0.5-0.7-0.9-1.4-0.9-2.3c0-0.8,0.3-1.3,1.1-1.6C197.8,131.3,198.4,131.2,199,131.2z"/>
<circle id="XMLID_170_" class="st8" cx="212.4" cy="141.4" r="10.3"/>
<linearGradient id="XMLID_22_" gradientUnits="userSpaceOnUse" x1="419" y1="-8.0667" x2="535" y2="-8.0667" gradientTransform="matrix(-1 0 0 -1 954 141.8666)">
	<stop  offset="0" style="stop-color:#2E9FFF;stop-opacity:0"/>
	<stop  offset="0.8867" style="stop-color:#2E9FFF"/>
</linearGradient>
<line id="XMLID_169_" style="opacity:0.8;fill:none;stroke:url(#XMLID_22_);stroke-width:4;stroke-miterlimit:10;" x1="535" y1="149.9" x2="419" y2="149.9"/>
<g id="XMLID_167_">
	<path class="st2" d="M299,206c-3.9,0-7-3.1-7-7v-99c0-3.9,3.1-7,7-7h147c3.9,0,7,3.1,7,7v99c0,3.9-3.1,7-7,7H299z"/>
	<path class="st3" d="M446,94c3.3,0,6,2.7,6,6v99c0,3.3-2.7,6-6,6H299c-3.3,0-6-2.7-6-6v-99c0-3.3,2.7-6,6-6H446 M446,92H299
		c-4.4,0-8,3.6-8,8v99c0,4.4,3.6,8,8,8h147c4.4,0,8-3.6,8-8v-99C454,95.6,450.4,92,446,92L446,92z"/>
</g>
<rect id="XMLID_166_" x="312.2" y="118" class="st7" width="45.8" height="46"/>
<polygon id="XMLID_165_" class="st8" points="329.1,134.1 340.7,140.8 329.1,147.5 "/>
<polygon id="XMLID_164_" class="st9" points="238,75 238,95.9 238,106 248,96 271,96 271,75 "/>
<line id="XMLID_163_" class="st4" x1="365" y1="163" x2="434" y2="163"/>
<line id="XMLID_162_" class="st4" x1="365" y1="172" x2="434" y2="172"/>
<line id="XMLID_161_" class="st4" x1="365" y1="181" x2="403" y2="181"/>
<line id="XMLID_160_" class="st4" x1="365" y1="118" x2="434" y2="118"/>
<line id="XMLID_159_" class="st4" x1="365" y1="127" x2="434" y2="127"/>
<line id="XMLID_158_" class="st4" x1="365" y1="136" x2="434" y2="136"/>
<line id="XMLID_157_" class="st4" x1="365" y1="145" x2="434" y2="145"/>
<line id="XMLID_156_" class="st4" x1="365" y1="154" x2="434" y2="154"/>
<rect x="105.6" y="109" class="st24" width="137" height="83"/>
<g id="XMLID_10_" style="filter:url(#dropshadow)">

	<g>
		<g>
			<g id="XMLID_948_">
				<defs>
					<circle id="XMLID_949_" cx="171.6" cy="150.8" r="21.6"/>
				</defs>
				<clipPath id="XMLID_28_">
					<use xlink:href="#XMLID_949_"  style="overflow:visible;"/>
				</clipPath>
			</g>
		</g>
		<g>
			<circle id="XMLID_758_" class="st25" cx="171.6" cy="150.8" r="22.1"/>
			<g id="XMLID_755_">
				<defs>
					<circle id="XMLID_756_" cx="171.6" cy="150.8" r="21.6"/>
				</defs>
				<clipPath id="XMLID_29_">
					<use xlink:href="#XMLID_756_"  style="overflow:visible;"/>
				</clipPath>
				<circle id="XMLID_757_" style="clip-path:url(#XMLID_29_);fill:#FFF3CE;" cx="171.6" cy="138.5" r="19.5"/>
			</g>
			<path id="XMLID_754_" class="st18" d="M182.6,133.3c0,0-1.9-0.8-1.9-2.7c0-2,0-5.1,0-5.1s-2.5-2.4-9.3-2.4
				c-6.8,0-9.3,2.4-9.3,2.4s0,3.1,0,5.1c0,2-1.9,2.7-1.9,2.7c-0.1-1.1-0.2-1.9-0.2-1.9h-1.1l-0.5-7.8c2.1-5.1,7.1-8.5,13-8.5
				c5.9,0,11,3.5,13.1,8.7l-0.5,7.6h-1.1C182.9,131.4,182.8,132.2,182.6,133.3z"/>
			<path id="XMLID_753_" class="st27" d="M165.6,154c-2,0.6-4.6,1.5-6.2,2.6c-2.8,1.8-3.7,4.7-3.7,7v2.1c0,0,5.9,6.9,16,6.9
				s16-7,16-7v-1.9c0-2.3-0.9-5.1-3.7-7c-1.6-1.1-4.3-2-6.3-2.6c0,0,0.5-2.5-2.6-2.5s-7.1,0-7.1,0s-2.5,0-2.5,1.5
				C165.6,154.4,165.6,154,165.6,154z"/>
			<path id="XMLID_752_" class="st28" d="M184.1,131.4l-1.2,0c0,0,0,0.8-0.2,1.9c0,0-2-0.8-2-2.7c0-2,0-5.1,0-5.1s-2.5-2.4-9.3-2.4
				s-9.3,2.4-9.3,2.4s0,3.1,0,5.1c0,2-2,2.7-2,2.7l-0.2-1.9l-1.1,0c0,0-1.6,0-1.6,1.4s0.2,2.8,0.2,2.8s0.3,2.7,3.3,2.7l0.1,0.1
				c0.2,1.1,0.3,2.2,0.4,3c0.4,2,3.2,6.9,6.8,9v5.4c0,1.8,1.6,3.3,3.5,3.3h0c2,0,3.5-1.5,3.5-3.3v-5.6c3.4-2.2,6-6.8,6.4-8.8
				c0.1-0.8,0.3-1.9,0.4-3c3,0,3.3-2.7,3.3-2.7s0.2-1.4,0.2-2.8S184.1,131.4,184.1,131.4z"/>
			<path id="XMLID_751_" class="st16" d="M185.4,133.8c0,1-0.1,1.8-0.1,1.8s-0.3,2.7-3.3,2.7"/>
			<path id="XMLID_750_" class="st16" d="M184.1,131.4c0,0,1.4,0,1.4,1.4c0,0.3,0,0.7,0,1"/>
			<path id="XMLID_749_" class="st16" d="M158.7,131.4c0,0-1.4,0-1.4,1.4s0.2,2.8,0.2,2.8s0.3,2.7,3.3,2.7"/>
			<path id="XMLID_748_" class="st16" d="M175.1,150.3v5.5c0,1.8-1.6,3.3-3.5,3.3l0,0c-2,0-3.5-1.5-3.5-3.3v-5.4"/>
			<path id="XMLID_747_" class="st16" d="M177.7,153.9c2,0.6,4.6,1.5,6.3,2.6c2.8,1.8,3.7,4.7,3.7,7v2.5"/>
			<path id="XMLID_746_" class="st16" d="M165.6,154c-2,0.6-4.6,1.5-6.2,2.6c-2.8,1.8-3.7,4.7-3.7,7v2.7"/>
			<path id="XMLID_745_" class="st16" d="M171.4,151.4c5,0,9.6-7.3,10.2-10c0.5-3,1.3-10,1.3-10h1.1l0.5-7.6
				c-2.1-5.2-7.1-8.7-13.1-8.7c-5.9,0-10.9,3.4-13,8.5l0.5,7.8h1.1c0,0,0.8,7,1.3,10C161.8,144.1,166.4,151.4,171.4,151.4z"/>
			<path id="XMLID_744_" class="st16" d="M182.7,133.3c0,0-2-0.8-2-2.7c0-2,0-5.1,0-5.1s-2.5-2.4-9.3-2.4c-6.8,0-9.3,2.4-9.3,2.4
				s0,3.1,0,5.1c0,2-2,2.7-2,2.7"/>
			<path id="XMLID_743_" class="st17" d="M168.5,142.1c0,0,1.3,0.5,2.9,0.5c1.6,0,2.9-0.5,2.9-0.5"/>
			<path id="XMLID_742_" class="st17" d="M167.5,145.6c0,0,1.7,0.6,3.9,0.6c2.2,0,3.9-0.6,3.9-0.6"/>
			<path id="XMLID_741_" class="st17" d="M169.6,147.5c0,0,0.9,0.4,1.9,0.4s1.9-0.4,1.9-0.4"/>
			<circle id="XMLID_740_" class="st18" cx="176.5" cy="135.2" r="1.2"/>
			<circle id="XMLID_739_" class="st18" cx="166.3" cy="135.2" r="1.2"/>
			<path id="XMLID_738_" class="st17" d="M174.6,131.1c0,0,0.8-0.4,1.9-0.4c1,0,1.9,0.4,1.9,0.4"/>
			<path id="XMLID_737_" class="st17" d="M164.5,131.1c0,0,0.8-0.4,1.9-0.4s1.9,0.4,1.9,0.4"/>
			<path id="XMLID_736_" class="st29" d="M168,151.4c0,0-2.5-0.2-2.5,2.5c0,2.8,0,4.6,0,4.6s0.6-1.9,2.6-1.9"/>
			<path id="XMLID_735_" class="st29" d="M175.2,151.4c0,0,2.5-0.2,2.5,2.5c0,2.8,0,4.6,0,4.6s-0.6-1.9-2.6-1.9"/>
			<line id="XMLID_734_" class="st16" x1="171.6" y1="159.1" x2="171.6" y2="173"/>
			<path id="XMLID_733_" class="st19" d="M156.1,161.3c0,0,5.4,6.8,15.7,6.8s15.7-6.8,15.7-6.8v5.3c0,0-6.1,5.7-15.6,5.9
				c0,0-7.8,0.9-16-6.3L156.1,161.3z"/>
		</g>
		<g>
			<g id="XMLID_729_">
				<defs>
					<circle id="XMLID_730_" cx="171.6" cy="150.8" r="21.6"/>
				</defs>
				<clipPath id="XMLID_30_">
					<use xlink:href="#XMLID_730_"  style="overflow:visible;"/>
				</clipPath>
			</g>
		</g>
	</g>
</g>
</svg>
