<?xml version="1.0" encoding="iso-8859-1"?>
<!-- Generator: Adobe Illustrator 19.1.0, SVG Export Plug-In . SVG Version: 6.00 Build 0)  -->
<svg version="1.1" id="Layer_1" xmlns="http://www.w3.org/2000/svg" xmlns:xlink="http://www.w3.org/1999/xlink" x="0px" y="0px"
	 viewBox="0 0 126.789 126.789" style="enable-background:new 0 0 126.789 126.789;" xml:space="preserve">
<g>
	<path style="opacity:0.5;fill:#F4C147;" d="M79.603,2.099C74.428,0.735,68.998,0,63.395,0C28.383,0,0,28.383,0,63.395
		s28.383,63.395,63.395,63.395c5.603,0,11.034-0.735,16.208-2.099V2.099z"/>
	<path style="opacity:0.5;fill:#F4C147;" d="M89.401,5.583v115.622c22.038-9.93,37.388-32.071,37.388-57.811
		S111.439,15.513,89.401,5.583z"/>
</g>
<g>
	<path style="fill:#F4C147;" d="M79.603,102.095c-4.987,2.091-10.462,3.249-16.208,3.249c-23.168,0-41.95-18.782-41.95-41.95
		c0-23.168,18.782-41.95,41.95-41.95c5.746,0,11.221,1.158,16.208,3.249V2.099C74.428,0.735,68.998,0,63.395,0
		C28.383,0,0,28.383,0,63.395s28.383,63.395,63.395,63.395c5.603,0,11.034-0.735,16.208-2.099V102.095z"/>
	<path style="fill:#F4C147;" d="M89.401,5.583v24.908c9.708,7.683,15.943,19.561,15.943,32.903s-6.236,25.22-15.943,32.903v24.908
		c22.038-9.93,37.388-32.071,37.388-57.811S111.439,15.513,89.401,5.583z"/>
</g>
</svg>
