<svg version="1.1" xmlns="http://www.w3.org/2000/svg" xmlns:xlink="http://www.w3.org/1999/xlink" x="0px" y="0px" width="47px" height="45px" viewBox="0 0 47 45" style="enable-background:new 0 0 47 45;" xml:space="preserve">
   <g>
      <path d="M43,4H4C1.8,4,0,5.8,0,8v29c0,2.2,1.8,4,4,4h39c2.2,0,4-1.8,4-4V8C47,5.8,45.2,4,43,4z M45,37c0,1.1-0.9,2-2,2 H4c-1.1,0-2-0.9-2-2V8c0-1.1,0.9-2,2-2h39c1.1,0,2,0.9,2,2V37z"/>
      <path d="M21,12H9c-2.2,0-4,1.8-4,4v12c0,2.2,1.8,4,4,4h12c2.2,0,4-1.8,4-4V16C25,13.8,23.2,12,21,12z M9,14h12 c1.1,0,2,0.9,2,2v9.5l-3.3-3.3l-3.7,3.7l-4.3-4.3L7,26.1V16C7,14.9,7.9,14,9,14z M7,28v-0.4l4.6-4.6l7,7H9C7.9,30,7,29.1,7,28z M21,30h-1l-3.4-3.4l3-3l3.3,3.3V28C23,29.1,22.1,30,21,30z"/>
      <path d="M11.3,20.7c1.5,0,2.8-1.3,2.8-2.8s-1.3-2.8-2.8-2.8s-2.8,1.3-2.8,2.8S9.8,20.7,11.3,20.7z M11.3,16.1 c1,0,1.8,0.8,1.8,1.8s-0.8,1.8-1.8,1.8s-1.8-0.8-1.8-1.8S10.3,16.1,11.3,16.1z"/>
      <rect x="28" y="14" width="13" height="2"/>
      <rect x="28" y="19" width="13" height="2"/>
      <rect x="28" y="24" width="13" height="2"/>
      <rect x="28" y="29" width="9" height="2"/>
   </g>
</svg>