<svg version="1.1" xmlns="http://www.w3.org/2000/svg" xmlns:xlink="http://www.w3.org/1999/xlink" x="0px" y="0px" width="47px" height="45px" viewBox="0 0 47 45" style="enable-background:new 0 0 47 45;" xml:space="preserve">
	<path d="M23.5,0C11.1,0,1,10.1,1,22.5S11.1,45,23.5,45S46,34.9,46,22.5S35.9,0,23.5,0z M23.5,2C34.8,2,44,11.2,44,22.5 c0,2.4-0.4,4.7-1.2,6.8c-1.2-1.2-2.6-2.2-4.2-2.8c0.3-0.7,0.5-1.4,0.7-2.3c0.2-0.9,0.3-1.8,0.2-2.6c0-0.2,0-0.5,0-0.7 c0-2.8-2.3-5.1-5.1-5.1c-1.4,0-2.7,0.6-3.6,1.5c-1-0.8-2-1.4-3.2-1.9c0.3-0.7,0.5-1.4,0.7-2.3c0.2-0.9,0.3-1.8,0.2-2.6 c0-0.2,0-0.5,0-0.7c0-2.8-2.3-5.1-5.1-5.1c-2.8,0-5.1,2.2-5.1,5.1h0c0,0.2,0,0.5,0,0.7c0,0.8,0,1.7,0.2,2.6c0.2,1,0.4,1.8,0.7,2.5 c-0.9,0.4-1.8,0.9-2.5,1.5c-0.9-0.8-2-1.3-3.3-1.3c-2.8,0-5.1,2.2-5.1,5.1h0c0,0.2,0,0.5,0,0.7c0,0.8,0,1.7,0.2,2.6 c0.2,1,0.4,1.8,0.7,2.5c-1.8,0.8-3.4,2-4.6,3.5c-1-2.4-1.5-5-1.5-7.7C3,11.2,12.2,2,23.5,2z M37.5,21.1c0,0.2,0,0.4,0,0.6l0,0l0,0 c0,0.6,0,1.3-0.2,2.1c-0.9,4-2,4-2.9,4c-1,0-2.1,0-2.9-4c-0.2-0.8-0.2-1.5-0.2-2.2c0-0.2,0-0.4,0-0.7c0-1.7,1.4-3.1,3.1-3.1 c1.7,0,3.1,1.4,3.1,3.1L37.5,21.1L37.5,21.1z M29.3,21.6c0,0.8,0,1.7,0.2,2.6c0.2,1,0.4,1.8,0.7,2.5c-2.6,1.1-4.9,3.3-6.1,6 c-1.2-2.8-3.7-5-6.6-6.2c0.3-0.7,0.5-1.4,0.7-2.3c0.2-0.9,0.3-1.8,0.2-2.6c0-0.2,0-0.5,0-0.7c0-0.8-0.2-1.6-0.6-2.3 c0.7-0.5,1.5-1,2.3-1.3c0.8,0.9,1.8,1.3,3.2,1.3c1.4,0,2.5-0.5,3.3-1.5c1.1,0.4,2.2,1,3.1,1.8c-0.2,0.6-0.4,1.3-0.4,1.9 C29.2,21.2,29.3,21.4,29.3,21.6z M16.4,21.1c0,0.2,0,0.4,0,0.6l0,0l0,0c0,0.6,0,1.3-0.2,2.1c-0.9,4-2,4-2.9,4c-1,0-2.1,0-2.9-4 c-0.2-0.8-0.2-1.5-0.2-2.2c0-0.2,0-0.4,0-0.7c0-1.7,1.4-3.1,3.1-3.1c1.7,0,3.1,1.4,3.1,3.1L16.4,21.1L16.4,21.1z M26.4,10 c0,0.2,0,0.4,0,0.6l0,0l0,0c0,0.6,0,1.3-0.2,2.1c-0.9,4-2,4-2.9,4c-1,0-2.1,0-2.9-4c-0.2-0.8-0.2-1.5-0.2-2.2c0-0.2,0-0.4,0-0.7 c0-1.7,1.4-3.1,3.1-3.1c1.7,0,3.1,1.4,3.1,3.1L26.4,10L26.4,10z M5.5,32.3c1.1-1.7,2.7-3.1,4.6-3.8c0.8,0.9,1.8,1.3,3.2,1.3 c1.4,0,2.5-0.5,3.3-1.5c3.7,1.3,6.5,4.6,6.5,8.7v0.5v5c0,0.1,0,0.3,0,0.5C15.4,42.8,8.9,38.5,5.5,32.3z M25,42.9v-0.4v-5 c0-4,2.7-7.7,6.2-9.1c0.8,0.9,1.8,1.3,3.2,1.3c1.4,0,2.5-0.5,3.3-1.5c1.7,0.6,3.2,1.7,4.3,3.1C38.8,37.8,32.5,42.4,25,42.9z"/>
</svg>