<svg version="1.1" xmlns="http://www.w3.org/2000/svg" xmlns:xlink="http://www.w3.org/1999/xlink" x="0px" y="0px" width="130px" height="130px" viewBox="0 0 130 130" style="enable-background:new 0 0 130 130;" xml:space="preserve">
<style type="text/css">
	.sy-st0{fill:#8030E1;}
	.sy-st1{fill:none;stroke:#8030E1;stroke-width:2;stroke-linejoin:round;stroke-miterlimit:10;}
	.sy-st2{fill:none;stroke:#8030E1;stroke-width:2;stroke-miterlimit:10;}
</style>
<g>
	<path class="sy-st0" d="M65,2c34.7,0,63,28.3,63,63s-28.3,63-63,63S2,99.7,2,65S30.3,2,65,2 M65,0C29.1,0,0,29.1,0,65s29.1,65,65,65 c35.9,0,65-29.1,65-65S100.9,0,65,0L65,0z"/>
	<path class="sy-st1" d="M22.7,71l-6.7-24.2c0,0,9.3,10.4,15.2,24"/>
	<path class="sy-st1" d="M15.9,46.8c0,0,12.8-3.7,24.5,3.8"/>
	<path class="sy-st1" d="M58.6,56.6L46,71h-4l-9-19.7C33,51.3,48,48.1,58.6,56.6c0,0,5.4-19,31.9-27.4c0,0-7.5,18.1-11.7,41.8h-3.1 L58.6,56.6z"/>
	<line class="sy-st1" x1="3" y1="82" x2="127" y2="82"/>
	<polyline class="sy-st1" points="118.8,70.1 118.8,66.1 108.9,66.1 79.3,71 22.7,71 2.1,75.5 "/>
	<polyline class="sy-st1" points="96.8,82 116.6,70.1 121,70.1 121,82 "/>
	<polyline class="sy-st1" points="50,66 58,68 69,66 "/>
	<line class="sy-st1" x1="58.6" y1="70.1" x2="58.6" y2="56.6"/>
	<path class="sy-st1" d="M78,34.6V25c0,0-21.1,3.9-32,26.3"/>
	<polyline class="sy-st1" points="84.7,45 86,45.9 93.6,68.3 "/>
	<path class="sy-st1" d="M86,45.9c0,0,7.8-4,17.1-5.4c0,0-6.1,15-8.1,27.4"/>
	<path class="sy-st1" d="M91.4,43.6v-4.5c0,0-2.4-0.2-4.5,0.5"/>
	<path class="sy-st1" d="M108.5,66.1l11.2-17.5c0,0-8.9-0.9-20.2,2.2l8.5,15.7"/>
	<line class="sy-st1" x1="80" y1="66" x2="92" y2="64"/>
	<line class="sy-st1" x1="95.4" y1="64.3" x2="105.8" y2="62.5"/>
	<line class="sy-st1" x1="28" y1="98" x2="47" y2="98"/>
	<line class="sy-st1" x1="53" y1="98" x2="64" y2="98"/>
	<line class="sy-st1" x1="24" y1="98" x2="26" y2="98"/>
	<line class="sy-st1" x1="49" y1="98" x2="51" y2="98"/>
	<line class="sy-st1" x1="68" y1="105" x2="70" y2="105"/>
	<line class="sy-st1" x1="72" y1="105" x2="89" y2="105"/>
	<line class="sy-st1" x1="19" y1="110" x2="37" y2="110"/>
	<line class="sy-st1" x1="55" y1="115" x2="64" y2="115"/>
	<line class="sy-st1" x1="66" y1="115" x2="68" y2="115"/>
	<line class="sy-st1" x1="70" y1="115" x2="72" y2="115"/>
	<line class="sy-st1" x1="101" y1="97" x2="120" y2="97"/>
	<line class="sy-st1" x1="88" y1="97" x2="97" y2="97"/>
	<line class="sy-st1" x1="84" y1="97" x2="86" y2="97"/>
	<rect x="29" y="77" class="sy-st2" width="22" height="5"/>
	<rect x="15" y="77" class="sy-st2" width="7" height="5"/>
	<rect x="58" y="77" class="sy-st2" width="34" height="5"/>
	<line class="st1" x1="4.5" y1="86" x2="125" y2="86"/>
</g>
</svg>
