<svg version="1.1" xmlns="http://www.w3.org/2000/svg" xmlns:xlink="http://www.w3.org/1999/xlink" x="0px" y="0px" width="130px" height="130px" viewBox="0 0 130 130" style="enable-background:new 0 0 130 130;" xml:space="preserve">
<style type="text/css">
	.we-st0{fill:#2DD7AA;}
	.we-st1{fill:none;stroke:#2DD7AA;stroke-width:2;stroke-miterlimit:10;}
</style>
<g>
	<path class="we-st0" d="M65,2c34.7,0,63,28.3,63,63s-28.3,63-63,63S2,99.7,2,65S30.3,2,65,2 M65,0C29.1,0,0,29.1,0,65s29.1,65,65,65 s65-29.1,65-65S100.9,0,65,0L65,0z"/>
	<path class="we-st0" d="M113,88v2.5c0,2.5-2,4.5-4.5,4.5H23.5C21,95,19,93,19,90.5V88H113 M115,86H17v4.5c0,3.6,2.9,6.5,6.5,6.5 h85.1c3.6,0,6.5-2.9,6.5-6.5V86L115,86z"/>
	<path class="we-st0" d="M100,33c2.2,0,4,1.8,4,4v49H28V37c0-2.2,1.8-4,4-4H100 M100,31H32c-3.3,0-6,2.7-6,6v51h80V37 C106,33.7,103.3,31,100,31L100,31z"/>
	<path class="we-st0" d="M73.8,88c-0.4,1.2-1.5,2-2.8,2H61c-1.3,0-2.4-0.8-2.8-2H73.8 M76,86H56v1c0,2.8,2.2,5,5,5h10 c2.8,0,5-2.2,5-5V86L76,86z"/>
	<path class="we-st0" d="M96,41c0.6,0,1,0.4,1,1v37H35V42c0-0.6,0.4-1,1-1H96 M96,39H36c-1.7,0-3,1.3-3,3v39h66V42 C99,40.3,97.7,39,96,39L96,39z"/>
	<line class="we-st1" x1="3" y1="76" x2="27" y2="76"/>
	<line class="we-st1" x1="105" y1="76" x2="128" y2="76"/>
	<line class="we-st1" x1="63" y1="36" x2="69" y2="36"/>
	<line class="we-st1" x1="46" y1="51" x2="86" y2="51"/>
	<line class="we-st1" x1="46" y1="57" x2="86" y2="57"/>
	<line class="we-st1" x1="46" y1="63" x2="86" y2="63"/>
	<line class="we-st1" x1="46" y1="69" x2="75" y2="69"/>
	<line class="we-st1" x1="101" y1="91" x2="108" y2="91"/>
</g>
</svg>
