<svg version="1.1" xmlns="http://www.w3.org/2000/svg" xmlns:xlink="http://www.w3.org/1999/xlink" x="0px" y="0px" width="61px" height="61px" viewBox="0 0 61 61" style="enable-background:new 0 0 61 61;" xml:space="preserve">
	<path d="M57,2c1.1,0,2,0.9,2,2v44c0,1.1-0.9,2-2,2h-8h-1.8L47,51.8c-0.2,2.6,0.1,4.7,0.7,6.4 c-0.2-0.1-0.4-0.1-0.6-0.2c-3.2-1.3-5.3-3.5-6.2-6.5L40.5,50H39H4c-1.1,0-2-0.9-2-2V4c0-1.1,0.9-2,2-2H57 M57,0H4 C1.8,0,0,1.8,0,4v44c0,2.2,1.8,4,4,4h35c2.6,9,13,9,13,9c-2.4-1.9-3.4-5-3-9h8c2.2,0,4-1.8,4-4V4C61,1.8,59.2,0,57,0L57,0z"/>
	<rect x="13" y="16" width="36" height="2"/>
	<rect x="13" y="25" width="36" height="2"/>
	<rect x="13" y="34" width="26" height="2"/>
</svg>