<svg class="services-cards-icon" version="1.1" xmlns="http://www.w3.org/2000/svg" xmlns:xlink="http://www.w3.org/1999/xlink" x="0px" y="0px"
	 viewBox="0 0 110 113.1" style="enable-background:new 0 0 110 113.1;" xml:space="preserve">
<style type="text/css">
	.st1{fill:#FFFFFF;}
	.st35{fill:#FFFFFF;stroke:#2E9FFF;stroke-width:2;stroke-linecap:round;stroke-miterlimit:10;}
	.st37{fill:none;stroke:#2E9FFF;stroke-width:2;stroke-linecap:round;stroke-miterlimit:10;}
</style>
	<path class="st35" d="M69.4,113.1H40.6c-9.7,0-17.6-7.9-17.6-17.6V70.7c0-9.7,7.9-17.6,17.6-17.6h28.8c9.7,0,17.6,7.9,17.6,17.6
		v24.7C87,105.1,79.1,113.1,69.4,113.1z"/>
	<line class="st35" x1="34.1" y1="69.7" x2="34.1" y2="96.8"/>
	<line class="st35" x1="76" y1="69.7" x2="76" y2="96.8"/>
	<rect x="16" y="94" class="st1" width="87" height="29.7"/>
	<g>
		<path class="st37" d="M72.8,46.2c0.9-4.2,1.2-7.7,1-10.8c0-1.1,0-2.1,0-3.1c0-0.1,0-0.1,0-0.2c0-10.6-8.6-19.1-19.1-19.1
			c-10.6,0-19.1,8.6-19.1,19.1c0,0.1,0,0.1,0,0.2c-0.1,1,0,2,0,3.1c-0.2,3.1,0.1,6.6,1,10.8"/>
		<path class="st35" d="M67.4,37.2c0-0.7,0-1.4,0-2.1c0,0,0-0.1,0-0.1c0-7-5.7-12.7-12.7-12.7c-7,0-12.7,5.7-12.7,12.7
			c0,0,0,0.1,0,0.1c0,0.6,0,1.3,0,2.1c-0.1,2,0.1,4.4,0.7,7.2c2.7,12.2,6.3,14.7,12,14.7v0h0l0,0l0,0l0,0l0,0l0,0v0
			c5.7,0,9.4-2.5,12-14.7C67.3,41.6,67.5,39.2,67.4,37.2z"/>
		<path class="st35" d="M74,47.6h-2V29.4h2c2.2,0,4,1.8,4,4v10.3C78,45.8,76.2,47.6,74,47.6z"/>
		<path class="st35" d="M34,29.4h2v18.3h-2c-2.2,0-4-1.8-4-4V33.4C30,31.2,31.8,29.4,34,29.4z"/>
		<path class="st35" d="M56.8,67.1h-5c-0.8,0-1.5-0.7-1.5-1.5v-0.4c0-0.8,0.7-1.5,1.5-1.5h5c0.8,0,1.5,0.7,1.5,1.5v0.4
			C58.3,66.4,57.6,67.1,56.8,67.1z"/>
		<path class="st37" d="M80,38.5v4.6c0,6.6-9.1,22.8-21.7,22.8h0"/>
	</g>
</svg>
