<svg version="1.1" xmlns="http://www.w3.org/2000/svg" xmlns:xlink="http://www.w3.org/1999/xlink" x="0px" y="0px" width="100px" height="85px" viewBox="0 0 100 85" style="enable-background:new 0 0 100 85;" xml:space="preserve">
<rect x="34.5" y="30" width="30" height="2"/>
<rect x="34.5" y="38" width="30" height="2"/>
<rect x="34.5" y="46" width="30" height="2"/>
<rect x="34.5" y="54" width="21" height="2"/>
<path d="M81.5,58.7V18c0-3.9-3.1-7-7-7h-50c-3.9,0-7,3.1-7,7v50c0,3.9,3.1,7,7,7h42.1c1.9,4.1,6.1,7,10.9,7 c6.6,0,12-5.4,12-12C89.5,64.8,86.2,60.4,81.5,58.7z M24.5,73c-2.8,0-5-2.2-5-5V18c0-2.8,2.2-5,5-5h50c2.8,0,5,2.2,5,5v40.2 c-0.7-0.1-1.3-0.2-2-0.2c-6.6,0-12,5.4-12,12c0,1,0.1,2,0.4,3H24.5z M77.5,80c-5.5,0-10-4.5-10-10s4.5-10,10-10s10,4.5,10,10 S83,80,77.5,80z"/>
<polygon points="76.5,72.6 73.2,69.3 71.8,70.7 76.5,75.4 84.2,67.7 82.8,66.3  "/>
</svg>