<svg version="1.1" xmlns="http://www.w3.org/2000/svg" xmlns:xlink="http://www.w3.org/1999/xlink" x="0px" y="0px" width="61px" height="61px" viewBox="0 0 61 61" style="enable-background:new 0 0 61 61;" xml:space="preserve">
	<path d="M55,0H6C2.7,0,0,2.7,0,6v49c0,3.3,2.7,6,6,6h49c3.3,0,6-2.7,6-6V6C61,2.7,58.3,0,55,0z M59,55c0,2.2-1.8,4-4,4 H6c-2.2,0-4-1.8-4-4V6c0-2.2,1.8-4,4-4h49c2.2,0,4,1.8,4,4V55z"/>
	<path d="M19,33c-4.4,0-8,3.6-8,8s3.6,8,8,8s8-3.6,8-8S23.4,33,19,33z M19,47c-3.3,0-6-2.7-6-6s2.7-6,6-6s6,2.7,6,6 S22.3,47,19,47z"/>
	<path d="M25,19.6c-0.3,3.1-2.8,5.5-6,5.5c-3.3,0-6-2.7-6-6s2.7-6,6-6c1,0,1.9,0.2,2.7,0.6l1.5-1.5 c-1.2-0.7-2.6-1.2-4.2-1.2c-4.4,0-8,3.6-8,8s3.6,8,8,8s8-3.6,8-8c0-0.5,0-0.9-0.1-1.4L25,19.6z"/>
	<polygon points="16.7,17.4 15.3,18.8 19,22.5 26.7,14.7 25.3,13.3 19,19.7  "/>
	<rect x="31" y="18" width="18" height="2"/>
	<rect x="32" y="40.9" width="17" height="2"/>
</svg>