<svg version="1.1" xmlns="http://www.w3.org/2000/svg" xmlns:xlink="http://www.w3.org/1999/xlink" x="0px" y="0px" width="47px" height="45px" viewBox="0 0 47 45" style="enable-background:new 0 0 47 45;" xml:space="preserve">
	<path d="M42.3,1H5.7C3.6,1,2,2.6,2,4.7v23.7c0,2,1.6,3.7,3.7,3.7H18v4.2l-7,2V43h26v-4.8l-7-2V32h12.3 c2,0,3.7-1.6,3.7-3.7V4.7C46,2.6,44.4,1,42.3,1z M5.7,3h36.7C43.3,3,44,3.7,44,4.7V7H4V4.7C4,3.7,4.7,3,5.7,3z M44,8v17H4V8H44z M35,39.8V41H13v-1.2l7-2V32h8v5.8L35,39.8z M42.3,30H30H18H5.7C4.7,30,4,29.3,4,28.3V26h40v2.3C44,29.3,43.3,30,42.3,30z"/>
</svg>