<svg version="1.1" xmlns="http://www.w3.org/2000/svg" xmlns:xlink="http://www.w3.org/1999/xlink" x="0px" y="0px" width="100px" height="85px" viewBox="0 0 100 85" style="enable-background:new 0 0 100 85;" xml:space="preserve">
<path d="M90,64V21c0-3.3-2.7-6-6-6H16c-3.3,0-6,2.7-6,6v43H3v3.5C3,71.1,5.9,74,9.5,74h81.1c3.6,0,6.5-2.9,6.5-6.5V64 H90z M12,21c0-2.2,1.8-4,4-4h68c2.2,0,4,1.8,4,4v43H60H40H12V21z M57.8,66c-0.4,1.2-1.5,2-2.8,2H45c-1.3,0-2.4-0.8-2.8-2H57.8z M95,67.5c0,2.5-2,4.5-4.5,4.5H9.5C7,72,5,70,5,67.5V66h5h30.1c0.5,2.3,2.5,4,4.9,4h10c2.4,0,4.4-1.7,4.9-4H90h5V67.5z"/>
<path d="M50,53V30c0-2.2-1.8-4-4-4H22c-2.2,0-4,1.8-4,4v23c0,2.2,1.8,4,4,4h24C48.2,57,50,55.2,50,53z M46,55h-2.9 l-6.9-6.9l5.3-5.3l6.5,6.5V53C48,54.1,47.1,55,46,55z M22,28h24c1.1,0,2,0.9,2,2v17.9l-6.5-6.5l-6,6l-6.9-6.9L20,49V30 C20,28.9,20.9,28,22,28z M20,53v-2.6l8.6-8.6L41.7,55H22C20.9,55,20,54.1,20,53z"/>
<path d="M28.1,38.4c2.3,0,4.2-1.9,4.2-4.2s-1.9-4.2-4.2-4.2s-4.2,1.9-4.2,4.2S25.8,38.4,28.1,38.4z M28.1,31.1 c1.8,0,3.2,1.4,3.2,3.2s-1.4,3.2-3.2,3.2s-3.2-1.4-3.2-3.2S26.3,31.1,28.1,31.1z"/>
<rect x="55" y="28" width="26" height="2"/>
<rect x="55" y="36" width="26" height="2"/>
<rect x="55" y="44" width="26" height="2"/>
<rect x="55" y="52" width="19" height="2"/>
</svg>