<?xml version="1.0" encoding="utf-8"?>
<!-- Generator: Adobe Illustrator 19.0.1, SVG Export Plug-In . SVG Version: 6.00 Build 0)  -->
<!DOCTYPE svg PUBLIC "-//W3C//DTD SVG 1.1//EN" "http://www.w3.org/Graphics/SVG/1.1/DTD/svg11.dtd">
<svg version="1.1" xmlns="http://www.w3.org/2000/svg" xmlns:xlink="http://www.w3.org/1999/xlink" x="0px" y="0px"
	 viewBox="0 0 36 15" style="enable-background:new 0 0 36 15;" xml:space="preserve">
<style type="text/css">
	.st5{fill:#E7E7E7;}
	.st6{fill:#E0E0E0;}
</style>
		<circle class="st5" cx="6.5" cy="7.5" r="3"/>
		<path class="st6" d="M6.5,5C7.9,5,9,6.1,9,7.5S7.9,10,6.5,10S4,8.9,4,7.5S5.1,5,6.5,5 M6.5,4C4.6,4,3,5.6,3,7.5S4.6,11,6.5,11
			S10,9.4,10,7.5S8.4,4,6.5,4L6.5,4z"/>

		<circle class="st5" cx="17.5" cy="7.5" r="3"/>
		<path class="st6" d="M17.5,5C18.9,5,20,6.1,20,7.5S18.9,10,17.5,10S15,8.9,15,7.5S16.1,5,17.5,5 M17.5,4C15.6,4,14,5.6,14,7.5
			s1.6,3.5,3.5,3.5S21,9.4,21,7.5S19.4,4,17.5,4L17.5,4z"/>

		<circle class="st5" cx="28.5" cy="7.5" r="3"/>
		<path class="st6" d="M28.5,5C29.9,5,31,6.1,31,7.5S29.9,10,28.5,10S26,8.9,26,7.5S27.1,5,28.5,5 M28.5,4C26.6,4,25,5.6,25,7.5
			s1.6,3.5,3.5,3.5S32,9.4,32,7.5S30.4,4,28.5,4L28.5,4z"/>
</svg>
