<?xml version="1.0" encoding="utf-8"?>
<!-- Generator: Adobe Illustrator 19.0.1, SVG Export Plug-In . SVG Version: 6.00 Build 0)  -->
<!DOCTYPE svg PUBLIC "-//W3C//DTD SVG 1.1//EN" "http://www.w3.org/Graphics/SVG/1.1/DTD/svg11.dtd">
<svg version="1.1" id="Layer_1" xmlns="http://www.w3.org/2000/svg" xmlns:xlink="http://www.w3.org/1999/xlink" x="0px" y="0px"
	 viewBox="0 0 1440 350" style="enable-background:new 0 0 1440 350;" xml:space="preserve">
<style type="text/css">
	.st0{fill:none;stroke:#FCBB42;stroke-width:3;stroke-miterlimit:10;}
	.st1{fill:#FCBB42;stroke:#FCBB42;stroke-width:3;stroke-miterlimit:10;}
	.st2{fill:#FFFFFF;}
	.st3{opacity:0.5;}
	.st4{fill:none;}
	.st5{fill:#333333;}
	.st7{fill:url(#SVGID_3_);}
	.st8{fill:url(#SVGID_4_);}
	.st9{fill:url(#SVGID_5_);}
	.st10{fill:url(#SVGID_6_);}
	.st11{fill:url(#SVGID_7_);}
	.st12{fill:url(#SVGID_8_);}
	.st13{fill:url(#SVGID_9_);}
</style>
<defs>
 	<filter id="dropshadow" x="-20%" y="-20%" width="140%" height="140%">
	    <feGaussianBlur in="SourceAlpha" result="blur-out" stdDeviation="4" />
	    <feOffset in="blur-out" result="the-shadow" dx="0" dy="0"/>
	    <feColorMatrix in="the-shadow" result="color-out" type="matrix"
	      values="0 0 0 0   0
	              0 0 0 0   0
	              0 0 0 0   0
	              0 0 0 .25 0"/>
	    <feBlend in="SourceGraphic" in2="color-out" mode="normal"/>
  	</filter>
 	<filter id="dropshadow2" x="-20%" y="-20%" width="140%" height="140%">
	    <feGaussianBlur in="SourceAlpha" result="blur-out" stdDeviation="2" />
	    <feOffset in="blur-out" result="the-shadow" dx="0" dy="0"/>
	    <feColorMatrix in="the-shadow" result="color-out" type="matrix"
	      values="0 0 0 0   0
	              0 0 0 0   0
	              0 0 0 0   0
	              0 0 0 .3 0"/>
	    <feBlend in="SourceGraphic" in2="color-out" mode="normal"/>
  	</filter>
</defs>
<polyline class="st0" points="0,268 243,200 333,302 539,198 709,310 821,204 937,298 1031,146 1440,264 "/>
<circle style="filter:url(#dropshadow)" class="st1" cx="1032" cy="146" r="19"/>
<g style="filter:url(#dropshadow)">

	<g>
		<path class="st2" d="M1099,26H833c-2.8,0-5,2.2-5,5v59c0,2.8,2.2,5,5,5h186l11.6,11.6l11.6-11.6h56.8c2.8,0,5-2.2,5-5V31 C1104,28.2,1101.8,26,1099,26z"/>
	</g>

	<g class="st3">
		<polygon class="st4" points="1085,84 887.8,84 887.8,65 1084.8,65 		"/>
		<path class="st5" d="M889.2,72c0.1,0.4,0.2,0.8,0.4,1c0.2,0.2,0.6,0.3,1.1,0.3c0.5,0,0.9-0.1,1.2-0.4c0.3-0.3,0.5-0.7,0.5-1.3
			c0-1.1-0.6-1.6-1.8-1.6h-0.8V69h0.6c0.6,0,1.1-0.1,1.4-0.4c0.3-0.3,0.5-0.7,0.5-1.2c0-0.9-0.5-1.3-1.4-1.3c-0.5,0-0.8,0.1-1,0.3
			c-0.2,0.2-0.4,0.5-0.5,0.9l-1-0.2c0.3-1.3,1.1-1.9,2.6-1.9c0.8,0,1.3,0.2,1.7,0.6c0.4,0.4,0.6,0.9,0.6,1.5c0,0.6-0.2,1.1-0.5,1.4
			c-0.3,0.4-0.7,0.6-1.2,0.7v0c1.2,0.2,1.8,1,1.8,2.2c0,0.8-0.3,1.4-0.8,1.9c-0.5,0.5-1.2,0.7-2,0.7c-1.5,0-2.4-0.7-2.5-2L889.2,72z
			"/>
		<path class="st5" d="M901.6,65.4l3,8.7h-1.2l-0.9-2.6h-3.3l-0.9,2.6h-1.1l2.9-8.7H901.6z M900.9,66.4L900.9,66.4l-1.4,4.1h2.8
			L900.9,66.4z"/>
		<path class="st5" d="M909.5,73.8c-0.2,0.1-0.4,0.2-0.7,0.3c-0.3,0.1-0.6,0.1-0.8,0.1c-0.6,0-1-0.1-1.3-0.4
			c-0.3-0.3-0.4-0.7-0.4-1.3v-3.7h-0.9v-0.9h0.9v-1.8l1.1-0.2v2h1.7v0.9h-1.7v3.5c0,0.4,0.1,0.6,0.2,0.8c0.1,0.2,0.4,0.2,0.7,0.2
			s0.7-0.1,1.1-0.3L909.5,73.8z"/>
		<path class="st5" d="M913.9,73.8c-0.2,0.1-0.4,0.2-0.7,0.3c-0.3,0.1-0.6,0.1-0.8,0.1c-0.6,0-1-0.1-1.3-0.4
			c-0.3-0.3-0.4-0.7-0.4-1.3v-3.7h-0.9v-0.9h0.9v-1.8l1.1-0.2v2h1.7v0.9h-1.7v3.5c0,0.4,0.1,0.6,0.2,0.8c0.1,0.2,0.4,0.2,0.7,0.2
			s0.7-0.1,1.1-0.3L913.9,73.8z"/>
		<path class="st5" d="M917.3,74.2c-0.5,0-1-0.1-1.4-0.3c-0.4-0.2-0.7-0.4-0.9-0.7c-0.2-0.3-0.4-0.7-0.5-1c-0.1-0.4-0.1-0.8-0.1-1.2
			c0-1.1,0.3-1.9,0.8-2.4c0.5-0.5,1.2-0.8,2.1-0.8c0.8,0,1.4,0.2,1.8,0.7c0.4,0.5,0.6,1.1,0.6,1.9c0,0.1,0,0.3,0,0.4s0,0.3,0,0.4
			h-4.2c0,0.7,0.2,1.3,0.5,1.6c0.3,0.3,0.7,0.5,1.2,0.5c0.8,0,1.3-0.4,1.5-1.1l1,0.2c-0.1,0.6-0.4,1-0.8,1.3
			C918.5,74.1,918,74.2,917.3,74.2L917.3,74.2z M918.7,70.4c0-1.2-0.5-1.7-1.4-1.7c-0.4,0-0.8,0.1-1.1,0.4c-0.3,0.3-0.5,0.7-0.5,1.3
			L918.7,70.4z"/>
		<path class="st5" d="M922.5,74h-1.1v-6.2h0.9l0.1,0.7c0.7-0.6,1.4-0.8,2.1-0.8c0.8,0,1.3,0.3,1.5,0.9c0.7-0.6,1.4-0.9,2.1-0.9
			c0.6,0,1.1,0.2,1.4,0.5c0.3,0.4,0.4,0.9,0.4,1.6V74h-1.1v-4c0-0.4-0.1-0.8-0.2-1c-0.1-0.2-0.4-0.3-0.8-0.3c-0.3,0-0.6,0.1-0.9,0.2
			c-0.3,0.2-0.6,0.3-0.8,0.5c0,0.1,0,0.2,0,0.3s0,0.1,0,0.2V74h-1.1v-4c0-0.4-0.1-0.8-0.2-1c-0.1-0.2-0.4-0.3-0.8-0.3
			c-0.3,0-0.6,0.1-0.9,0.2c-0.3,0.2-0.6,0.3-0.8,0.5L922.5,74z"/>
		<path class="st5" d="M931.9,67.9h0.9l0.1,0.7c0.6-0.6,1.3-0.8,2.1-0.8c1.5,0,2.3,1,2.3,3.1c0,1.1-0.2,2-0.7,2.5
			c-0.5,0.6-1.1,0.8-1.8,0.8c-0.6,0-1.2-0.2-1.8-0.6v3h-1.1V67.9z M932.9,72.7c0.5,0.4,1.1,0.6,1.6,0.6c1.1,0,1.6-0.8,1.6-2.5
			c0-0.8-0.1-1.3-0.4-1.6s-0.6-0.5-1.1-0.5c-0.3,0-0.6,0.1-0.9,0.2c-0.3,0.2-0.6,0.3-0.8,0.5V72.7z"/>
		<path class="st5" d="M942.1,73.8c-0.2,0.1-0.4,0.2-0.7,0.3c-0.3,0.1-0.6,0.1-0.8,0.1c-0.6,0-1-0.1-1.3-0.4
			c-0.3-0.3-0.4-0.7-0.4-1.3v-3.7h-0.9v-0.9h0.9v-1.8l1.1-0.2v2h1.7v0.9H940v3.5c0,0.4,0.1,0.6,0.2,0.8c0.1,0.2,0.4,0.2,0.7,0.2
			c0.4,0,0.7-0.1,1.1-0.3L942.1,73.8z"/>
		<path class="st5" d="M945.3,67.8c0.7,0,1.2,0.1,1.6,0.5c0.3,0.3,0.6,0.7,0.7,1.3l-1,0.2c-0.1-0.4-0.2-0.7-0.4-0.9
			c-0.2-0.2-0.5-0.3-0.9-0.3c-0.8,0-1.2,0.3-1.2,0.9c0,0.3,0.1,0.5,0.3,0.6c0.2,0.1,0.6,0.3,1.1,0.4c0.3,0.1,0.5,0.1,0.7,0.1
			c0.1,0,0.3,0.1,0.6,0.2c0.2,0.1,0.4,0.2,0.5,0.3c0.1,0.1,0.2,0.3,0.3,0.5c0.1,0.2,0.1,0.4,0.1,0.7c0,0.6-0.2,1-0.7,1.4
			c-0.4,0.3-1,0.5-1.8,0.5c-1.4,0-2.3-0.6-2.4-1.8l1-0.3c0.1,0.4,0.3,0.7,0.5,0.9c0.2,0.2,0.6,0.3,1.1,0.3c0.9,0,1.3-0.3,1.3-0.9
			c0-0.3-0.1-0.5-0.3-0.6c-0.2-0.1-0.6-0.2-1-0.3c-0.1,0-0.2,0-0.3,0c-0.1,0-0.1,0-0.2,0c0,0-0.1,0-0.2,0c-0.1,0-0.2,0-0.3-0.1
			c-0.1,0-0.2-0.1-0.3-0.1c-0.1,0-0.1-0.1-0.2-0.1c-0.1,0-0.2-0.1-0.4-0.2s-0.2-0.2-0.3-0.3c-0.1-0.1-0.1-0.3-0.2-0.4
			c0-0.2-0.1-0.4-0.1-0.6c0-0.6,0.2-1,0.6-1.4C944,67.9,944.6,67.8,945.3,67.8L945.3,67.8z"/>
		<path class="st5" d="M954.1,74.2c-1.9,0-2.8-1.1-2.8-3.2c0-1,0.3-1.8,0.8-2.4c0.5-0.6,1.3-0.9,2.2-0.9c0.9,0,1.6,0.3,2.1,0.8
			c0.4,0.6,0.7,1.3,0.7,2.3C957,73.1,956.1,74.2,954.1,74.2L954.1,74.2z M954.2,73.3c1.1,0,1.7-0.8,1.7-2.4c0-0.8-0.1-1.4-0.4-1.8
			s-0.7-0.5-1.3-0.5c-1.2,0-1.8,0.8-1.8,2.3c0,0.8,0.1,1.4,0.4,1.8C953.1,73.1,953.6,73.3,954.2,73.3L954.2,73.3z"/>
		<path class="st5" d="M963.7,74.1h-1.1v-4c0-0.5-0.1-0.8-0.3-1c-0.2-0.2-0.5-0.3-0.9-0.3c-0.3,0-0.6,0.1-1,0.2
			c-0.3,0.2-0.6,0.3-0.8,0.5v4.6h-1.1v-6.2h1l0.1,0.7c0.7-0.6,1.5-0.9,2.2-0.9c0.6,0,1.1,0.2,1.4,0.5c0.3,0.4,0.5,0.9,0.5,1.6
			L963.7,74.1z"/>
		<path class="st5" d="M971.7,74.2c-1.3,0-2.3-0.4-2.9-1.2c-0.7-0.8-1-1.9-1-3.3c0-1.3,0.4-2.4,1.1-3.2c0.7-0.8,1.7-1.2,3-1.2
			c1.3,0,2.2,0.4,2.9,1.2c0.6,0.8,1,1.9,1,3.1c0,1.5-0.4,2.7-1.1,3.5l1.1,1.2l-0.6,0.6l-1.1-1.2C973.3,74,972.6,74.2,971.7,74.2
			L971.7,74.2z M971.7,73.3c0.6,0,1.1-0.1,1.5-0.4l-1.6-1.7l0.7-0.6l1.6,1.7c0.5-0.7,0.7-1.6,0.7-2.6c0-1.1-0.2-2-0.7-2.6
			c-0.5-0.6-1.2-0.9-2-0.9c-0.9,0-1.6,0.3-2.1,0.9c-0.5,0.6-0.8,1.5-0.8,2.6c0,1.1,0.3,2,0.8,2.6C970.2,73,970.9,73.3,971.7,73.3
			L971.7,73.3z"/>
		<path class="st5" d="M977.2,67.9h1.1v4c0,0.4,0.1,0.8,0.2,1c0.2,0.2,0.4,0.3,0.9,0.3c0.3,0,0.6-0.1,1-0.2c0.3-0.2,0.6-0.3,0.8-0.5
			v-4.6h1.1v6.2h-0.9l-0.1-0.7c-0.7,0.6-1.4,0.8-2.2,0.8c-1.3,0-1.9-0.7-1.9-2.1L977.2,67.9z"/>
		<path class="st5" d="M986.7,74.2c-0.5,0-1-0.1-1.4-0.3c-0.4-0.2-0.7-0.4-0.9-0.7c-0.2-0.3-0.4-0.7-0.5-1c-0.1-0.4-0.1-0.8-0.1-1.2
			c0-1.1,0.3-1.9,0.8-2.4c0.5-0.5,1.2-0.8,2.1-0.8c0.8,0,1.4,0.2,1.8,0.7c0.4,0.5,0.6,1.1,0.6,1.9c0,0.1,0,0.3,0,0.4
			c0,0.1,0,0.3,0,0.4H985c0,0.7,0.2,1.3,0.5,1.6c0.3,0.3,0.7,0.5,1.2,0.5c0.8,0,1.3-0.4,1.5-1.1l1,0.2c-0.1,0.6-0.4,1-0.8,1.3
			C987.9,74.1,987.3,74.2,986.7,74.2L986.7,74.2z M988,70.4c0-1.2-0.5-1.7-1.4-1.7c-0.4,0-0.8,0.1-1.1,0.4c-0.3,0.3-0.5,0.7-0.5,1.3
			L988,70.4z"/>
		<path class="st5" d="M992.8,67.8c0.7,0,1.2,0.1,1.6,0.5c0.3,0.3,0.6,0.7,0.7,1.3l-1,0.2c-0.1-0.4-0.2-0.7-0.4-0.9
			c-0.2-0.2-0.5-0.3-0.9-0.3c-0.8,0-1.2,0.3-1.2,0.9c0,0.3,0.1,0.5,0.3,0.6c0.2,0.1,0.6,0.3,1.1,0.4c0.3,0.1,0.5,0.1,0.7,0.1
			c0.1,0,0.3,0.1,0.6,0.2c0.2,0.1,0.4,0.2,0.5,0.3c0.1,0.1,0.2,0.3,0.3,0.5c0.1,0.2,0.1,0.4,0.1,0.7c0,0.6-0.2,1-0.7,1.4
			c-0.4,0.3-1,0.5-1.8,0.5c-1.4,0-2.3-0.6-2.4-1.8l1-0.3c0.1,0.4,0.3,0.7,0.5,0.9c0.2,0.2,0.6,0.3,1.1,0.3c0.9,0,1.3-0.3,1.3-0.9
			c0-0.3-0.1-0.5-0.3-0.6c-0.2-0.1-0.6-0.2-1-0.3c-0.1,0-0.2,0-0.3,0c-0.1,0-0.1,0-0.2,0c0,0-0.1,0-0.2,0c-0.1,0-0.2,0-0.3-0.1
			c-0.1,0-0.2-0.1-0.3-0.1c-0.1,0-0.1-0.1-0.2-0.1c-0.1,0-0.2-0.1-0.4-0.2c-0.1-0.1-0.2-0.2-0.3-0.3c-0.1-0.1-0.1-0.3-0.2-0.4
			c0-0.2-0.1-0.4-0.1-0.6c0-0.6,0.2-1,0.6-1.4C991.6,67.9,992.1,67.8,992.8,67.8L992.8,67.8z"/>
		<path class="st5" d="M999.9,73.8c-0.2,0.1-0.4,0.2-0.7,0.3c-0.3,0.1-0.6,0.1-0.8,0.1c-0.6,0-1-0.1-1.3-0.4
			c-0.3-0.3-0.4-0.7-0.4-1.3v-3.7h-0.9v-0.9h0.9v-1.8l1.1-0.2v2h1.7v0.9h-1.7v3.5c0,0.4,0.1,0.6,0.2,0.8c0.1,0.2,0.4,0.2,0.7,0.2
			s0.7-0.1,1.1-0.3L999.9,73.8z"/>
		<path class="st5" d="M1000.8,65.9c0-0.5,0.3-0.8,0.8-0.8c0.2,0,0.4,0.1,0.6,0.2s0.2,0.3,0.2,0.6c0,0.2-0.1,0.4-0.2,0.6
			c-0.1,0.1-0.3,0.2-0.6,0.2s-0.4-0.1-0.6-0.2C1000.9,66.4,1000.8,66.2,1000.8,65.9L1000.8,65.9z M1002.1,74.1h-1.1v-6.2h1.1V74.1z"
			/>
		<path class="st5" d="M1006.5,74.2c-1.9,0-2.8-1.1-2.8-3.2c0-1,0.3-1.8,0.8-2.4c0.5-0.6,1.3-0.9,2.2-0.9c0.9,0,1.6,0.3,2.1,0.8
			c0.4,0.6,0.7,1.3,0.7,2.3C1009.4,73.1,1008.4,74.2,1006.5,74.2L1006.5,74.2z M1006.5,73.3c1.1,0,1.7-0.8,1.7-2.4
			c0-0.8-0.1-1.4-0.4-1.8c-0.3-0.3-0.7-0.5-1.3-0.5c-1.2,0-1.8,0.8-1.8,2.3c0,0.8,0.1,1.4,0.4,1.8
			C1005.5,73.1,1005.9,73.3,1006.5,73.3L1006.5,73.3z"/>
		<path class="st5" d="M1016.1,74.1h-1.1v-4c0-0.5-0.1-0.8-0.3-1c-0.2-0.2-0.5-0.3-0.9-0.3c-0.3,0-0.6,0.1-1,0.2
			c-0.3,0.2-0.6,0.3-0.8,0.5v4.6h-1.1v-6.2h1l0.1,0.7c0.7-0.6,1.5-0.9,2.2-0.9c0.6,0,1.1,0.2,1.4,0.5c0.3,0.4,0.5,0.9,0.5,1.6
			L1016.1,74.1z"/>
		<path class="st5" d="M1020.7,74.1l3.6-7.7h-4.3v-1h5.5v0.8l-3.5,7.8H1020.7z"/>
		<path class="st5" d="M1032.7,73.8c-0.2,0.1-0.4,0.2-0.7,0.3c-0.3,0.1-0.6,0.1-0.8,0.1c-0.6,0-1-0.1-1.3-0.4
			c-0.3-0.3-0.4-0.7-0.4-1.3v-3.7h-0.9v-0.9h0.9v-1.8l1.1-0.2v2h1.7v0.9h-1.7v3.5c0,0.4,0.1,0.6,0.2,0.8c0.1,0.2,0.4,0.2,0.7,0.2
			s0.7-0.1,1.1-0.3L1032.7,73.8z"/>
		<path class="st5" d="M1033.6,65.9c0-0.5,0.3-0.8,0.8-0.8c0.2,0,0.4,0.1,0.6,0.2s0.2,0.3,0.2,0.6c0,0.2-0.1,0.4-0.2,0.6
			c-0.1,0.1-0.3,0.2-0.6,0.2s-0.4-0.1-0.6-0.2C1033.6,66.4,1033.6,66.2,1033.6,65.9L1033.6,65.9z M1034.9,74.1h-1.1v-6.2h1.1V74.1z"
			/>
		<path class="st5" d="M1037.8,74.1h-1.1V65h1.1V74.1z"/>
		<path class="st5" d="M1040.8,74.1h-1.1V65h1.1V74.1z"/>
		<path class="st5" d="M1047.7,74.3c-1,0-1.7-0.3-2.1-0.9c-0.5-0.6-0.7-1.3-0.7-2.3c0-1.1,0.3-1.9,0.8-2.4c0.5-0.6,1.2-0.8,2.2-0.8
			c0.7,0,1.3,0.2,1.7,0.5c0.4,0.4,0.7,0.9,0.7,1.6l-1,0.1c-0.1-0.9-0.6-1.4-1.4-1.4c-0.5,0-0.9,0.2-1.3,0.5s-0.5,0.9-0.5,1.7
			c0,1.6,0.6,2.4,1.7,2.4c0.9,0,1.4-0.4,1.5-1.3l1,0.2c-0.1,0.7-0.4,1.2-0.8,1.5C1049,74,1048.4,74.2,1047.7,74.3L1047.7,74.3z"/>
		<path class="st5" d="M1054.2,74.2c-1.9,0-2.8-1.1-2.8-3.2c0-1,0.3-1.8,0.8-2.4c0.5-0.6,1.3-0.9,2.2-0.9c0.9,0,1.6,0.3,2.1,0.8
			c0.4,0.6,0.7,1.3,0.7,2.3C1057.1,73.1,1056.2,74.2,1054.2,74.2L1054.2,74.2z M1054.3,73.3c1.1,0,1.7-0.8,1.7-2.4
			c0-0.8-0.1-1.4-0.4-1.8c-0.3-0.3-0.7-0.5-1.3-0.5c-1.2,0-1.8,0.8-1.8,2.3c0,0.8,0.1,1.4,0.4,1.8
			C1053.2,73.1,1053.7,73.3,1054.3,73.3L1054.3,73.3z"/>
		<path class="st5" d="M1062,68.9c-0.1,0-0.1,0-0.2,0c-0.1,0-0.1,0-0.1,0c-0.3,0-0.7,0.1-1,0.2c-0.3,0.1-0.6,0.3-0.8,0.5v4.5h-1.1
			v-6.2h0.9l0.1,0.9c0.5-0.7,1.2-1,2.1-1h0.1h0.1V68.9z"/>
		<path class="st5" d="M1066.3,68.9c-0.1,0-0.1,0-0.2,0s-0.1,0-0.1,0c-0.3,0-0.7,0.1-1,0.2c-0.3,0.1-0.6,0.3-0.8,0.5v4.5h-1.1v-6.2
			h0.9l0.1,0.9c0.5-0.7,1.2-1,2.1-1h0.1h0.1V68.9z"/>
		<path class="st5" d="M1069.7,74.2c-0.5,0-1-0.1-1.4-0.3c-0.4-0.2-0.7-0.4-0.9-0.7c-0.2-0.3-0.4-0.7-0.5-1
			c-0.1-0.4-0.1-0.8-0.1-1.2c0-1.1,0.3-1.9,0.8-2.4c0.5-0.5,1.2-0.8,2.1-0.8c0.8,0,1.4,0.2,1.8,0.7c0.4,0.5,0.6,1.1,0.6,1.9
			c0,0.1,0,0.3,0,0.4c0,0.1,0,0.3,0,0.4h-4.2c0,0.7,0.2,1.3,0.5,1.6c0.3,0.3,0.7,0.5,1.2,0.5c0.8,0,1.3-0.4,1.5-1.1l1,0.2
			c-0.1,0.6-0.4,1-0.8,1.3C1070.9,74.1,1070.3,74.2,1069.7,74.2L1069.7,74.2z M1071,70.4c0-1.2-0.5-1.7-1.4-1.7
			c-0.4,0-0.8,0.1-1.1,0.4c-0.3,0.3-0.5,0.7-0.5,1.3L1071,70.4z"/>
		<path class="st5" d="M1076.2,74.3c-1,0-1.7-0.3-2.1-0.9c-0.5-0.6-0.7-1.3-0.7-2.3c0-1.1,0.3-1.9,0.8-2.4c0.5-0.6,1.2-0.8,2.2-0.8
			c0.7,0,1.3,0.2,1.7,0.5c0.4,0.4,0.7,0.9,0.7,1.6l-1,0.1c-0.1-0.9-0.6-1.4-1.4-1.4c-0.5,0-0.9,0.2-1.3,0.5s-0.5,0.9-0.5,1.7
			c0,1.6,0.6,2.4,1.7,2.4c0.9,0,1.4-0.4,1.5-1.3l1,0.2c-0.1,0.7-0.4,1.2-0.8,1.5C1077.5,74,1076.9,74.2,1076.2,74.3L1076.2,74.3z"/>
		<path class="st5" d="M1083.7,73.8c-0.2,0.1-0.4,0.2-0.7,0.3c-0.3,0.1-0.6,0.1-0.8,0.1c-0.6,0-1-0.1-1.3-0.4
			c-0.3-0.3-0.4-0.7-0.4-1.3v-3.7h-0.9v-0.9h0.9v-1.8l1.1-0.2v2h1.7v0.9h-1.7v3.5c0,0.4,0.1,0.6,0.2,0.8c0.1,0.2,0.4,0.2,0.7,0.2
			c0.4,0,0.7-0.1,1.1-0.3L1083.7,73.8z"/>
	</g>
	<g>
		<path class="st5" d="M892.3,45.2c-1.2,0-1.8,0.5-1.8,1.4c0,0.2,0,0.4,0.1,0.6c0.1,0.2,0.2,0.3,0.3,0.4c0.1,0.1,0.3,0.2,0.5,0.3
			c0.2,0.1,0.4,0.2,0.5,0.2c0.1,0,0.2,0.1,0.3,0.1c0.1,0,0.2,0.1,0.4,0.1c0.2,0,0.3,0.1,0.5,0.1c0.1,0,0.2,0.1,0.3,0.1
			c0.2,0.1,0.4,0.2,0.7,0.3c0.3,0.1,0.5,0.3,0.6,0.4c0.2,0.2,0.3,0.4,0.4,0.6c0.1,0.3,0.2,0.6,0.2,0.9c0,0.9-0.3,1.5-0.9,1.9
			c-0.6,0.4-1.3,0.6-2.2,0.6c-1.9,0-3-0.8-3.2-2.5l1.1-0.2c0.1,0.5,0.3,1,0.6,1.3c0.3,0.3,0.8,0.5,1.5,0.5c0.6,0,1-0.1,1.4-0.3
			s0.6-0.6,0.6-1.1c0-0.2,0-0.4-0.1-0.6c-0.1-0.2-0.2-0.3-0.3-0.4c-0.1-0.1-0.3-0.2-0.5-0.3c-0.2-0.1-0.4-0.2-0.5-0.2
			c-0.1,0-0.2-0.1-0.3-0.1c-0.1,0-0.2-0.1-0.4-0.1c-0.1,0-0.2-0.1-0.3-0.1c-0.1,0-0.2,0-0.2-0.1c-0.1,0-0.1,0-0.2-0.1
			s-0.2-0.1-0.3-0.1c-0.1,0-0.2-0.1-0.3-0.1s-0.2-0.1-0.2-0.1c-0.1,0-0.1-0.1-0.2-0.1s-0.1-0.1-0.2-0.2c-0.2-0.1-0.3-0.3-0.4-0.4
			c-0.1-0.1-0.2-0.3-0.2-0.5c-0.1-0.2-0.1-0.4-0.1-0.7c0-0.7,0.3-1.3,0.8-1.7s1.3-0.6,2.1-0.6c1.7,0,2.7,0.8,2.8,2.4l-1,0.1
			c-0.1-0.5-0.3-0.9-0.5-1.2C893.4,45.2,893,45.1,892.3,45.2L892.3,45.2z"/>
		<path class="st5" d="M896.9,48.7c0-1.3,0.4-2.4,1.1-3.2s1.7-1.2,3-1.2c1.3,0,2.2,0.4,2.9,1.2c0.6,0.8,1,1.9,1,3.1
			c0,1.4-0.3,2.6-1,3.4c-0.7,0.8-1.7,1.2-3,1.2c-1.3,0-2.3-0.4-2.9-1.2C897.3,51.1,897,50,896.9,48.7L896.9,48.7z M900.9,52.2
			c0.8,0,1.5-0.3,2.1-0.9c0.5-0.6,0.8-1.5,0.8-2.7c0-1.1-0.2-2-0.7-2.6c-0.5-0.6-1.2-0.9-2-0.9c-0.9,0-1.6,0.3-2.1,0.9
			c-0.5,0.6-0.8,1.5-0.8,2.6c0,1.1,0.3,2,0.8,2.6S900,52.2,900.9,52.2L900.9,52.2z"/>
		<path class="st5" d="M908.3,53h-1.1v-8.7h2.8c1,0,1.8,0.2,2.2,0.7c0.4,0.5,0.7,1.1,0.7,1.9c0,2-1.1,2.9-3.3,2.9h-1.3V53z
			 M909.6,48.9c0.7,0,1.3-0.1,1.7-0.4c0.4-0.3,0.6-0.8,0.6-1.5c0-0.6-0.2-1.1-0.5-1.3s-0.9-0.4-1.6-0.4h-1.4v3.7L909.6,48.9z"/>
		<path class="st5" d="M921.6,53h-1.1v-3.9h-4.2V53h-1.1v-8.7h1.1v3.8h4.2v-3.8h1.1V53z"/>
		<path class="st5" d="M925.7,53h-1.1v-8.7h1.1V53z"/>
		<path class="st5" d="M932.2,44.3l3,8.7H934l-0.9-2.6h-3.3L929,53h-1.1l2.9-8.7H932.2z M931.5,45.3L931.5,45.3l-1.4,4.1h2.8
			L931.5,45.3z"/>
		<path class="st5" d="M942.2,53v-7.7h-2.6v-1h6.3v1h-2.6V53H942.2z"/>
		<path class="st5" d="M951,52.2c0.7,0,1.2-0.2,1.6-0.5c0.3-0.3,0.5-0.9,0.5-1.7v-5.7h1.1v5.8c0,1-0.3,1.8-0.8,2.3
			c-0.6,0.5-1.4,0.8-2.4,0.8c-1.1,0-1.9-0.3-2.4-0.8c-0.5-0.5-0.8-1.3-0.8-2.3v-5.7h1.1V50c0,0.8,0.2,1.3,0.5,1.7
			C949.7,52,950.3,52.2,951,52.2L951,52.2z"/>
		<path class="st5" d="M963.2,53H962l-2-3.6h-2V53H957v-8.7h3c0.5,0,1,0.1,1.3,0.2c0.4,0.1,0.7,0.3,0.9,0.5c0.2,0.2,0.4,0.5,0.5,0.7
			c0.1,0.3,0.1,0.6,0.1,0.9c0,1.2-0.6,2-1.7,2.4L963.2,53z M959.7,48.5c0.6,0,1.1-0.1,1.4-0.4c0.3-0.3,0.5-0.7,0.5-1.3
			c0-0.6-0.2-0.9-0.5-1.2c-0.4-0.2-0.9-0.3-1.5-0.3h-1.5v3.2L959.7,48.5z"/>
		<path class="st5" d="M970.4,53l-4.3-7.3V53h-1v-8.7h1.5l4.2,7.2v-7.2h1V53H970.4z"/>
		<path class="st5" d="M975.7,52h4.1v1h-5.2v-8.7h5.1v1h-4v2.9h3.7v1h-3.7V52z"/>
		<path class="st5" d="M988.4,53h-1.2l-2-3.6h-2V53h-1.1v-8.7h3c0.5,0,1,0.1,1.3,0.2c0.4,0.1,0.7,0.3,0.9,0.5
			c0.2,0.2,0.4,0.5,0.5,0.7c0.1,0.3,0.1,0.6,0.1,0.9c0,1.2-0.6,2-1.7,2.4L988.4,53z M984.9,48.5c0.6,0,1.1-0.1,1.4-0.4
			c0.3-0.3,0.5-0.7,0.5-1.3c0-0.6-0.2-0.9-0.5-1.2c-0.4-0.2-0.9-0.3-1.5-0.3h-1.5v3.2L984.9,48.5z"/>
	</g>
	<g>
		<g>
			<path class="st5" d="M1030.2,53.1c-2.7,0-4-1.5-4-4.4c0-1.4,0.4-2.5,1.1-3.3c0.7-0.8,1.8-1.2,3.1-1.2c1,0,1.8,0.3,2.4,0.8
				c0.6,0.5,0.9,1.3,1,2.4l-1.7,0.1c-0.1-0.6-0.2-1.1-0.5-1.3c-0.3-0.3-0.7-0.4-1.3-0.4c-1.5,0-2.3,1-2.3,3c0,1,0.2,1.8,0.5,2.3
				c0.4,0.5,0.9,0.7,1.6,0.7c0.6,0,1-0.1,1.3-0.4c0.3-0.3,0.5-0.6,0.6-1.2l1.7,0.3c-0.1,0.6-0.3,1.2-0.7,1.6
				c-0.4,0.4-0.8,0.7-1.3,0.9S1030.8,53.1,1030.2,53.1L1030.2,53.1z"/>
			<path class="st5" d="M1042.6,53h-1.9v-3.6h-3.3V53h-1.8v-8.7h1.8v3.5h3.3v-3.5h1.9V53z"/>
			<path class="st5" d="M1046.8,51.4h3.9V53h-5.7v-8.7h5.5v1.6h-3.7v2h3.4v1.5h-3.4V51.4z"/>
			<path class="st5" d="M1061.8,53h-1.7v-6.8h0L1058,53h-1.7l-2-6.8h0V53h-1.7v-8.7h2.8l1.8,6.3h0l1.8-6.3h2.7V53z"/>
			<path class="st5" d="M1065.6,53v-6.5c-0.2,0.1-0.5,0.2-0.9,0.3c-0.4,0.1-0.7,0.1-1,0.1l-0.1-1.5c1.1-0.1,2-0.4,2.5-1h1.2V53
				L1065.6,53z"/>
			<path class="st5" d="M1072.7,53.2c-1.1,0-1.9-0.4-2.4-1.1c-0.5-0.7-0.7-1.9-0.7-3.4c0-1.5,0.2-2.6,0.7-3.4
				c0.5-0.7,1.3-1.1,2.5-1.1c1.1,0,1.9,0.4,2.4,1.1c0.4,0.7,0.7,1.8,0.7,3.3c0,1.6-0.2,2.7-0.7,3.5
				C1074.6,52.8,1073.8,53.1,1072.7,53.2L1072.7,53.2z M1072.7,51.8c0.5,0,0.8-0.2,1-0.7s0.3-1.3,0.3-2.4c0-1.2-0.1-1.9-0.2-2.4
				c-0.2-0.4-0.5-0.7-0.9-0.7c-0.5,0-0.8,0.2-1,0.7c-0.2,0.4-0.3,1.2-0.3,2.4c0,1.1,0.1,1.9,0.3,2.4S1072.2,51.8,1072.7,51.8
				L1072.7,51.8z"/>
			<path class="st5" d="M1079.1,53v-6.5c-0.2,0.1-0.5,0.2-0.9,0.3c-0.4,0.1-0.7,0.1-1,0.1l-0.1-1.5c1.1-0.1,2-0.4,2.5-1h1.2V53
				L1079.1,53z"/>
		</g>
	</g>
	<g>
		<image width="38" height="38" xlink:href="home-user-profile-01.png" transform="matrix(1 0 0 1 840 40)"></image>
	</g>
</g>
<g style="filter:url(#dropshadow2)">
	<g>
		<g>
			<g>
				<circle class="st1" cx="938" cy="297" r="8"/>
				<linearGradient id="SVGID_3_" gradientUnits="userSpaceOnUse" x1="938" y1="305" x2="938" y2="289">
					<stop  offset="0" style="stop-color:#EE4036;stop-opacity:0.6"/>
					<stop  offset="0.1651" style="stop-color:#F15E2D;stop-opacity:0.6661"/>
					<stop  offset="0.3384" style="stop-color:#F37527;stop-opacity:0.7354"/>
					<stop  offset="0.5249" style="stop-color:#F58522;stop-opacity:0.81"/>
					<stop  offset="0.7319" style="stop-color:#F68F1F;stop-opacity:0.8928"/>
					<stop  offset="1" style="stop-color:#F6921E"/>
				</linearGradient>
				<circle class="st7" cx="938" cy="297" r="8"/>
			</g>
			<g>
				<circle class="st1" cx="822" cy="205" r="8"/>
				<linearGradient id="SVGID_4_" gradientUnits="userSpaceOnUse" x1="822" y1="213" x2="822" y2="197">
					<stop  offset="0" style="stop-color:#EE4036;stop-opacity:0.6"/>
					<stop  offset="0.1651" style="stop-color:#F15E2D;stop-opacity:0.6661"/>
					<stop  offset="0.3384" style="stop-color:#F37527;stop-opacity:0.7354"/>
					<stop  offset="0.5249" style="stop-color:#F58522;stop-opacity:0.81"/>
					<stop  offset="0.7319" style="stop-color:#F68F1F;stop-opacity:0.8928"/>
					<stop  offset="1" style="stop-color:#F6921E"/>
				</linearGradient>
				<circle class="st8" cx="822" cy="205" r="8"/>
			</g>
			<g>
				<circle class="st1" cx="539" cy="198" r="8"/>
				<linearGradient id="SVGID_5_" gradientUnits="userSpaceOnUse" x1="539" y1="206" x2="539" y2="190">
					<stop  offset="0" style="stop-color:#EE4036;stop-opacity:0.6"/>
					<stop  offset="0.1651" style="stop-color:#F15E2D;stop-opacity:0.6661"/>
					<stop  offset="0.3384" style="stop-color:#F37527;stop-opacity:0.7354"/>
					<stop  offset="0.5249" style="stop-color:#F58522;stop-opacity:0.81"/>
					<stop  offset="0.7319" style="stop-color:#F68F1F;stop-opacity:0.8928"/>
					<stop  offset="1" style="stop-color:#F6921E"/>
				</linearGradient>
				<circle class="st9" cx="539" cy="198" r="8"/>
			</g>
			<g>
				<circle class="st1" cx="243" cy="200" r="8"/>
				<linearGradient id="SVGID_6_" gradientUnits="userSpaceOnUse" x1="243" y1="208" x2="243" y2="192">
					<stop  offset="0" style="stop-color:#EE4036;stop-opacity:0.6"/>
					<stop  offset="0.1651" style="stop-color:#F15E2D;stop-opacity:0.6661"/>
					<stop  offset="0.3384" style="stop-color:#F37527;stop-opacity:0.7354"/>
					<stop  offset="0.5249" style="stop-color:#F58522;stop-opacity:0.81"/>
					<stop  offset="0.7319" style="stop-color:#F68F1F;stop-opacity:0.8928"/>
					<stop  offset="1" style="stop-color:#F6921E"/>
				</linearGradient>
				<circle class="st10" cx="243" cy="200" r="8"/>
			</g>
			<g>
				<circle class="st1" cx="333" cy="302" r="8"/>
				<linearGradient id="SVGID_7_" gradientUnits="userSpaceOnUse" x1="333" y1="310" x2="333" y2="294">
					<stop  offset="0" style="stop-color:#EE4036;stop-opacity:0.6"/>
					<stop  offset="0.1651" style="stop-color:#F15E2D;stop-opacity:0.6661"/>
					<stop  offset="0.3384" style="stop-color:#F37527;stop-opacity:0.7354"/>
					<stop  offset="0.5249" style="stop-color:#F58522;stop-opacity:0.81"/>
					<stop  offset="0.7319" style="stop-color:#F68F1F;stop-opacity:0.8928"/>
					<stop  offset="1" style="stop-color:#F6921E"/>
				</linearGradient>
				<circle class="st11" cx="333" cy="302" r="8"/>
			</g>
			<g>
				<circle class="st1" cx="709" cy="309" r="8"/>
				<linearGradient id="SVGID_8_" gradientUnits="userSpaceOnUse" x1="709" y1="317" x2="709" y2="301">
					<stop  offset="0" style="stop-color:#EE4036;stop-opacity:0.6"/>
					<stop  offset="0.1651" style="stop-color:#F15E2D;stop-opacity:0.6661"/>
					<stop  offset="0.3384" style="stop-color:#F37527;stop-opacity:0.7354"/>
					<stop  offset="0.5249" style="stop-color:#F58522;stop-opacity:0.81"/>
					<stop  offset="0.7319" style="stop-color:#F68F1F;stop-opacity:0.8928"/>
					<stop  offset="1" style="stop-color:#F6921E"/>
				</linearGradient>
				<circle class="st12" cx="709" cy="309" r="8"/>
			</g>
			<linearGradient id="SVGID_9_" gradientUnits="userSpaceOnUse" x1="1032" y1="165" x2="1032" y2="127">
				<stop  offset="0" style="stop-color:#EE4036;stop-opacity:0.6"/>
				<stop  offset="0.1651" style="stop-color:#F15E2D;stop-opacity:0.6661"/>
				<stop  offset="0.3384" style="stop-color:#F37527;stop-opacity:0.7354"/>
				<stop  offset="0.5249" style="stop-color:#F58522;stop-opacity:0.81"/>
				<stop  offset="0.7319" style="stop-color:#F68F1F;stop-opacity:0.8928"/>
				<stop  offset="1" style="stop-color:#F6921E"/>
			</linearGradient>
			<circle class="st13" cx="1032" cy="146" r="19"/>
		</g>
	</g>
</g>
</svg>
