<?xml version="1.0" encoding="utf-8"?>
<!-- Generator: Adobe Illustrator 18.1.1, SVG Export Plug-In . SVG Version: 6.00 Build 0)  -->
<!DOCTYPE svg PUBLIC "-//W3C//DTD SVG 1.1//EN" "http://www.w3.org/Graphics/SVG/1.1/DTD/svg11.dtd">
<svg version="1.1" id="Layer_1" xmlns="http://www.w3.org/2000/svg" xmlns:xlink="http://www.w3.org/1999/xlink" x="0px" y="0px"
	 viewBox="0 0 489 254" style="enable-background:new 0 0 489 254;" xml:space="preserve">
<style type="text/css">
	.st0{fill:#F9F9F9;}
	.st1{fill:none;stroke:#37A0E5;stroke-width:4;stroke-miterlimit:10;}
	.st2{fill:#FFFFFF;stroke:#37A0E5;stroke-width:4;stroke-miterlimit:10;}
	.st3{fill:#FFFFFF;}
	.st4{fill:#A0AFB5;}
	.st5{fill:none;stroke:#A0AFB5;stroke-width:2;stroke-miterlimit:10;}
	.st6{fill:#37A0E5;}
	.st7{fill:#4AD3AC;}
	.st8{fill:none;stroke:#FFFFFF;stroke-width:2;stroke-miterlimit:10;}
	.st9{fill:#FBB03B;}
	.st10{fill:none;stroke:#F96155;stroke-width:2;stroke-miterlimit:10;}
	.st11{fill:#F96155;}
</style>
<g>
	<path class="st1" d="M98,90v58c0,0,1,53,63,53c65,0,40,0,94,0"/>
	<line class="st2" x1="143" y1="53" x2="421" y2="53"/>
	<line class="st2" x1="431" y1="53" x2="440" y2="53"/>
	<line class="st2" x1="450" y1="53" x2="459" y2="53"/>
	<line class="st2" x1="469" y1="53" x2="478" y2="53"/>
	<g>
		<g>
			<g>
				<path class="st3" d="M215,105c-2.8,0-5-2.2-5-5V6c0-2.8,2.2-5,5-5h138c2.8,0,5,2.2,5,5v94c0,2.8-2.2,5-5,5H215z"/>
				<path class="st4" d="M353,2c2.2,0,4,1.8,4,4v94c0,2.2-1.8,4-4,4H215c-2.2,0-4-1.8-4-4V6c0-2.2,1.8-4,4-4H353 M353,0H215
					c-3.3,0-6,2.7-6,6v94c0,3.3,2.7,6,6,6h138c3.3,0,6-2.7,6-6V6C359,2.6,356.3,0,353,0L353,0z"/>
			</g>
		</g>
		<g>
			<line class="st5" x1="274" y1="22" x2="337" y2="22"/>
			<line class="st5" x1="274" y1="30" x2="337" y2="30"/>
			<line class="st5" x1="274" y1="38" x2="337" y2="38"/>
			<line class="st5" x1="274" y1="46" x2="337" y2="46"/>
			<line class="st5" x1="274" y1="54" x2="337" y2="54"/>
			<line class="st5" x1="274" y1="62" x2="337" y2="62"/>
			<line class="st5" x1="274" y1="70" x2="337" y2="70"/>
			<line class="st5" x1="274" y1="78" x2="337" y2="78"/>
			<line class="st5" x1="274" y1="86" x2="314" y2="86"/>
		</g>
		<g>
			<g>
				<rect x="228.5" y="20.5" class="st6" width="41" height="43"/>
				<g>
					<path class="st6" d="M269,21v42h-40V21H269 M270,20h-42v44h42V20L270,20z"/>
				</g>
			</g>
		</g>
		<polygon class="st3" points="244,35 255,42 244,49 		"/>
	</g>
	<g>
		<g>
			<path class="st3" d="M215,253c-2.8,0-5-2.2-5-5v-94c0-2.8,2.2-5,5-5h138c2.8,0,5,2.2,5,5v94c0,2.8-2.2,5-5,5H215z"/>
			<g>
				<path class="st4" d="M353,150c2.2,0,4,1.8,4,4v94c0,2.2-1.8,4-4,4H215c-2.2,0-4-1.8-4-4v-94c0-2.2,1.8-4,4-4H353 M353,148H215
					c-3.3,0-6,2.7-6,6v94c0,3.3,2.7,6,6,6h138c3.3,0,6-2.7,6-6v-94C359,150.6,356.3,148,353,148L353,148z"/>
			</g>
		</g>
		<g>
			<g>
				<rect x="229" y="169" class="st7" width="39" height="41"/>
				<path class="st7" d="M267,170v39h-37v-39H267 M269,168h-41v43h41V168L269,168z"/>
			</g>
			<g>
				<polyline class="st8" points="225.7,211.2 241.7,195.2 259.2,212.7 				"/>
				<polyline class="st8" points="245.2,198.7 255.5,188.3 269.1,201.8 				"/>
				<g>
					<path class="st3" d="M242.6,179.7c2.1,0,3.7,1.7,3.7,3.7s-1.7,3.7-3.7,3.7c-2.1,0-3.7-1.7-3.7-3.7S240.5,179.7,242.6,179.7
						 M242.6,177.7c-3.2,0-5.7,2.6-5.7,5.7s2.6,5.7,5.7,5.7s5.7-2.6,5.7-5.7S245.7,177.7,242.6,177.7L242.6,177.7z"/>
				</g>
			</g>
		</g>
		<g>
			<g>
				<rect x="276.5" y="168.5" class="st6" width="63" height="42"/>
				<path class="st6" d="M339,169v41h-62v-41H339 M340,168h-64v43h64V168L340,168z"/>
			</g>
			<polygon class="st3" points="303,183 314,190 303,197 			"/>
		</g>
		<g>
			<line class="st5" x1="227" y1="219" x2="339" y2="219"/>
			<line class="st5" x1="227" y1="227" x2="339" y2="227"/>
			<line class="st5" x1="227" y1="235" x2="296" y2="235"/>
		</g>
	</g>
	<g>
		<g>
			<g>
				<path class="st3" d="M31,105c-2.8,0-5-2.2-5-5V6c0-2.8,2.2-5,5-5h138c2.8,0,5,2.2,5,5v94c0,2.8-2.2,5-5,5H31z"/>
				<g>
					<path class="st4" d="M169,2c2.2,0,4,1.8,4,4v94c0,2.2-1.8,4-4,4H31c-2.2,0-4-1.8-4-4V6c0-2.2,1.8-4,4-4H169 M169,0H31
						c-3.3,0-6,2.7-6,6v94c0,3.3,2.7,6,6,6h138c3.3,0,6-2.7,6-6V6C175,2.6,172.3,0,169,0L169,0z"/>
				</g>
			</g>
		</g>
		<g>
			<g id="screen2sim_2_">
				<g>
					<rect x="115.5" y="21.5" class="st9" width="40" height="41"/>
					<path class="st9" d="M155,22v40h-39V22H155 M156,21h-41v42h41V21L156,21z"/>
				</g>
			</g>
			<g>
				<path class="st8" d="M144.4,38.5c2,4.5-0.1,9.8-4.7,11.8c-4.5,2-9.8-0.1-11.8-4.7s0.1-9.8,4.7-11.8
					C137.2,31.9,142.4,34,144.4,38.5z"/>
				<path class="st3" d="M145,43.6c-0.1,0.6-0.3,1.2-0.5,1.7c1.4,1.1,2.1,2.1,1.9,2.6c-0.3,0.7-1.5,0.9-3.8,0.4
					c-1.8-0.4-4.3-1.2-7.7-2.5c-3.5-1.4-6-2.8-7.6-4c-1.7-1.3-2.4-2.3-2.1-2.9c0.3-0.5,1.3-0.6,2.8-0.4c0.2-0.5,0.5-1.1,0.9-1.5
					c-5.2-1.4-9.1-1.7-9.8-0.5c-0.8,1.4,2,4.5,8.5,7.8c2,1,4.2,2.1,6.9,3.1c2.4,0.9,4.5,1.7,6.4,2.4c7.7,2.6,11.1,2.7,11.8,1.1
					C153.2,49.6,150.2,46.7,145,43.6z"/>
			</g>
		</g>
		<g>
			<line class="st5" x1="45" y1="22" x2="108" y2="22"/>
			<line class="st5" x1="45" y1="30" x2="108" y2="30"/>
			<line class="st5" x1="45" y1="38" x2="108" y2="38"/>
			<line class="st5" x1="45" y1="46" x2="108" y2="46"/>
			<line class="st5" x1="45" y1="54" x2="108" y2="54"/>
			<line class="st5" x1="45" y1="62" x2="84" y2="62"/>
		</g>
		<g>
			<line class="st10" x1="45" y1="79" x2="155" y2="79"/>
			<g>
				<path class="st3" d="M64,84c-2.8,0-5-2.2-5-5s2.2-5,5-5s5,2.2,5,5S66.8,84,64,84z"/>
				<path class="st11" d="M64,75c2.2,0,4,1.8,4,4s-1.8,4-4,4s-4-1.8-4-4S61.8,75,64,75 M64,73c-3.3,0-6,2.7-6,6s2.7,6,6,6s6-2.7,6-6
					S67.3,73,64,73L64,73z"/>
			</g>
		</g>
	</g>
</g>
</svg>
