<svg version="1.1" xmlns="http://www.w3.org/2000/svg" xmlns:xlink="http://www.w3.org/1999/xlink" x="0px" y="0px" width="32px" height="32px" viewBox="0 0 32 32" style="enable-background:new 0 0 32 32;" xml:space="preserve">
<style type="text/css">
	.st0{fill:#55ACEE;}
</style>
<path class="st0" d="M25,10.4c-0.7,0.3-1.4,0.5-2.1,0.6c0.8-0.5,1.3-1.2,1.6-2c-0.7,0.4-1.5,0.7-2.3,0.9c-0.7-0.7-1.6-1.2-2.7-1.2
	c-2,0-3.7,1.7-3.7,3.7c0,0.3,0,0.6,0.1,0.8c-3.1-0.2-5.8-1.6-7.6-3.9c-0.3,0.5-0.5,1.2-0.5,1.9c0,1.3,0.7,2.4,1.6,3.1
	c-0.6,0-1.2-0.2-1.7-0.5c0,0,0,0,0,0c0,1.8,1.3,3.3,3,3.6c-0.3,0.1-0.6,0.1-1,0.1c-0.2,0-0.5,0-0.7-0.1c0.5,1.5,1.8,2.5,3.4,2.6
	c-1.3,1-2.9,1.6-4.6,1.6c-0.3,0-0.6,0-0.9-0.1c1.6,1,3.6,1.7,5.7,1.7c6.8,0,10.5-5.6,10.5-10.5c0-0.2,0-0.3,0-0.5
	C23.9,11.8,24.5,11.2,25,10.4z"/>
</svg>
