<svg version="1.1" xmlns="http://www.w3.org/2000/svg" xmlns:xlink="http://www.w3.org/1999/xlink" x="0px" y="0px" width="32px" height="32px" viewBox="0 0 32 32" style="enable-background:new 0 0 32 32;" xml:space="preserve">
<style type="text/css">
	.st0{fill:#3D5A98;}
	.st1{fill:#FFFFFF;}
</style>
	<path id="Blue_1_" class="st0" d="M24,25c0.5,0,1-0.4,1-1V8c0-0.5-0.4-1-1-1H8C7.4,7,7,7.4,7,8v16c0,0.5,0.4,1,1,1H24z"/>
	<path id="f_1_" class="st1" d="M19.4,25v-7h2.3l0.4-2.7h-2.7v-1.7c0-0.8,0.2-1.3,1.3-1.3l1.4,0V9.8c-0.2,0-1.1-0.1-2.1-0.1 c-2.1,0-3.5,1.3-3.5,3.6v2h-2.3V18h2.3v7H19.4z"/>
</svg>
