<svg version="1.1" xmlns="http://www.w3.org/2000/svg" xmlns:xlink="http://www.w3.org/1999/xlink" xmlns:a="http://ns.adobe.com/AdobeSVGViewerExtensions/3.0/" x="0px" y="0px" width="32px" height="32px" viewBox="0 0 32 32" style="enable-background:new 0 0 32 32;" xml:space="preserve">
<style type="text/css">
	.st0{fill:#616161;}
</style>
<path class="st0" d="M11.4,8.7c-0.2,0-0.4,0-0.6,0.1c-1.1,0.9-2,1.9-2.1,3.3c-0.1,1,0.3,1.9,0.7,2.8c0.5,1,1.3,2,2,2.8 c1.4,1.5,2.9,3,4.8,4.1c1.1,0.7,2.3,1.3,3.6,1.4c0.6,0,1.1-0.1,1.6-0.4c0.6-0.4,1-0.8,1.5-1.3c0.4-0.4,0.4-1.3,0-1.7 c-0.7-0.7-1.4-1.5-2.1-2.2c-0.4-0.4-1.2-0.3-1.6,0.1c-0.2,0.2-0.5,0.5-0.7,0.7c-0.4,0.3-0.6,0.4-1,0.1c-0.5-0.3-1-0.7-1.4-1.1 c-0.8-0.8-1.7-1.6-2.3-2.5c-0.1-0.1-0.2-0.2-0.2-0.3c-0.4-0.8-0.4-0.7,0.1-1.4c0.2-0.2,0.4-0.3,0.5-0.5c0.5-0.6,0.6-1,0-1.7 c-0.6-0.7-1.3-1.4-2-2C12,8.8,11.8,8.7,11.4,8.7"/>
</svg>
